<svg width="75" height="60" viewBox="0 0 75 60" fill="none" xmlns="http://www.w3.org/2000/svg">
<path d="M34.3533 9.55426H46.1006C46.549 9.55426 46.9158 9.18742 46.9158 8.73905C46.9158 8.29068 46.549 7.92383 46.1006 7.92383H34.3533C33.9049 7.92383 33.5381 8.29068 33.5381 8.73905C33.5381 9.18742 33.8968 9.55426 34.3533 9.55426Z" fill="#F43072"/>
<path d="M40.2229 49.459C38.3072 49.459 36.7419 51.0161 36.7419 52.94C36.7419 54.8639 38.299 56.4209 40.2229 56.4209C42.1468 56.4209 43.7039 54.8639 43.7039 52.94C43.7039 51.0161 42.1387 49.459 40.2229 49.459ZM40.2229 54.7824C39.2039 54.7824 38.3724 53.9508 38.3724 52.9318C38.3724 51.9128 39.2039 51.0813 40.2229 51.0813C41.2419 51.0813 42.0735 51.9128 42.0735 52.9318C42.0735 53.9508 41.2419 54.7824 40.2229 54.7824Z" fill="#F43072"/>
<path d="M35.4456 23.2339C35.4456 25.867 37.5896 28.0029 40.2146 28.0029C42.8396 28.0029 44.9836 25.8589 44.9836 23.2339C44.9836 20.6007 42.8396 18.4648 40.2146 18.4648C37.5896 18.4648 35.4456 20.6007 35.4456 23.2339ZM40.2227 26.3725C38.4863 26.3725 37.0841 24.9621 37.0841 23.2339C37.0841 21.5056 38.4945 20.0953 40.2227 20.0953C41.951 20.0953 43.3613 21.5056 43.3613 23.2339C43.3613 24.9621 41.9591 26.3725 40.2227 26.3725Z" fill="#F43072"/>
<path d="M40.2229 29.502C35.4213 29.502 31.5164 35.1106 31.5164 42.0074C31.5164 42.4558 31.8832 42.8226 32.3316 42.8226C32.7799 42.8226 33.1468 42.4558 33.1468 42.0074C33.1468 36.0155 36.318 31.1324 40.2229 31.1324C44.1278 31.1324 47.299 36.0074 47.299 42.0074C47.299 42.4558 47.6658 42.8226 48.1142 42.8226C48.5626 42.8226 48.9294 42.4558 48.9294 42.0074C48.9294 35.1106 45.0245 29.502 40.2229 29.502Z" fill="#F43072"/>
<path d="M21.8885 24.7012H8.2825C7.83413 24.7012 7.46729 25.068 7.46729 25.5164C7.46729 25.9648 7.83413 26.3316 8.2825 26.3316H21.8885C22.3369 26.3316 22.7037 25.9648 22.7037 25.5164C22.7037 25.068 22.3369 24.7012 21.8885 24.7012Z" fill="#F43072"/>
<path d="M8.2825 21.5298H25.3776C25.826 21.5298 26.1928 21.163 26.1928 20.7146C26.1928 20.2663 25.826 19.8994 25.3776 19.8994H8.2825C7.83413 19.8994 7.46729 20.2663 7.46729 20.7146C7.46729 21.163 7.83413 21.5298 8.2825 21.5298Z" fill="#F43072"/>
<path d="M8.2825 16.7198H25.3776C25.826 16.7198 26.1928 16.3529 26.1928 15.9046C26.1928 15.4562 25.826 15.0894 25.3776 15.0894H8.2825C7.83413 15.0894 7.46729 15.4562 7.46729 15.9046C7.46729 16.3529 7.83413 16.7198 8.2825 16.7198Z" fill="#F43072"/>
<path d="M57.0652 13.9482V3.5542H23.3804V9.26072H2.625V32.4129H23.3723V59.6412H57.0652V48.2607H75V13.9401H57.0652V13.9482ZM73.3696 46.6303H53.0625V15.5705H73.3696V46.6303ZM55.4348 58.0107H25.0109V32.4129H31.0353V9.26072H25.0109V5.18463H55.4348V13.9401H51.4321V48.2607H55.4348V58.0107ZM4.25544 10.8912H29.3967V30.7825H4.25544V10.8912Z" fill="#F43072"/>
<path d="M55.4023 17.5679V29.7798H55.435H71.0301V17.5679H55.4023ZM69.3996 28.1494H57.0654H57.0328V19.1983H57.0654H69.3996V28.1494Z" fill="#F43072"/>
<path d="M70.2148 32.0464H56.2502H56.2176C55.8263 32.0464 55.5246 32.3236 55.435 32.6823C55.4186 32.7393 55.4023 32.7964 55.4023 32.8616C55.4023 32.9268 55.4268 32.9839 55.435 33.041C55.5165 33.3996 55.8263 33.6768 56.2176 33.6768H56.2502H70.2148C70.6632 33.6768 71.0301 33.31 71.0301 32.8616C71.0301 32.4132 70.6714 32.0464 70.2148 32.0464Z" fill="#F43072"/>
<path d="M70.2148 36.4238H56.2502H56.2176C55.8263 36.4238 55.5246 36.701 55.435 37.0597C55.4186 37.1168 55.4023 37.1738 55.4023 37.239C55.4023 37.3043 55.4268 37.3613 55.435 37.4184C55.5165 37.7771 55.8263 38.0543 56.2176 38.0543H56.2502H70.2148C70.6632 38.0543 71.0301 37.6874 71.0301 37.239C71.0301 36.7907 70.6714 36.4238 70.2148 36.4238Z" fill="#F43072"/>
<path d="M70.2148 40.8008H56.2502H56.2176C55.8263 40.8008 55.5246 41.078 55.435 41.4366C55.4186 41.4937 55.4023 41.5508 55.4023 41.616C55.4023 41.6812 55.4268 41.7383 55.435 41.7953C55.5165 42.154 55.8263 42.4312 56.2176 42.4312H56.2502H70.2148C70.6632 42.4312 71.0301 42.0644 71.0301 41.616C71.0301 41.1676 70.6714 40.8008 70.2148 40.8008Z" fill="#F43072"/>
<path d="M0 51.4645H20.0788V36.6846H0V51.4645ZM1.63044 38.315H18.4484V49.834H1.63044V38.315Z" fill="#F43072"/>
<path d="M71.0871 0H60.6523V10.4348H71.0871V0ZM69.4567 8.80435H62.2828V1.63044H69.4567V8.80435Z" fill="#F43072"/>
<path d="M6.30151 48.8641L14.5923 44.0788L6.30151 39.2935V48.8641ZM7.93195 42.1141L11.3314 44.0788L7.93195 46.0435V42.1141Z" fill="#F43072"/>
<path d="M65.8777 6.03229C66.3261 6.03229 66.6929 5.66544 66.6929 5.21707C66.6929 4.7687 66.3261 4.40186 65.8777 4.40186H65.8696C65.4212 4.40186 65.0625 4.7687 65.0625 5.21707C65.0625 5.66544 65.4293 6.03229 65.8777 6.03229Z" fill="#F43072"/>
</svg>
