<svg width="67" height="60" viewBox="0 0 67 60" fill="none" xmlns="http://www.w3.org/2000/svg">
<path d="M41.2448 23.6521C43.6879 23.7641 45.9341 23.6145 48.0765 24.0183C52.2381 24.8032 56.4167 24.434 60.5843 24.5954C62.4687 24.6684 64.1932 24.2807 65.519 21.6018C64.4858 17.4409 65.1763 13.0722 65.4151 8.70197C65.4807 7.50071 65.6966 6.27514 65.5389 5.10189C65.362 3.78788 64.8403 2.52029 64.5013 1.34852C60.3352 0.984455 56.4934 0.0698791 52.8034 0.488476C49.1156 0.906336 45.2266 -1.35099 41.5536 1.3522C41.4394 2.45618 41.2021 3.63901 41.2168 4.81963C41.264 8.63196 41.4187 12.4281 40.4931 16.1969C40.1158 17.7335 40.1025 19.4027 40.1991 20.9946C40.2536 21.8915 40.8719 22.7537 41.2448 23.6521ZM45.2303 5.8816C46.6836 4.3804 48.4376 4.34723 50.2601 4.60075C53.4188 5.03998 56.5767 5.48806 59.9615 5.96487C60.2733 6.60456 60.8525 7.2752 60.9034 7.98343C61.1879 11.9557 61.3633 15.9382 60.3964 19.696C55.9097 20.4979 51.5926 18.5427 47.1428 20.2355C45.3785 15.3199 44.5302 10.7124 45.2303 5.8816Z" fill="#F43072"/>
<path d="M66.3269 37.8533C62.9383 35.1302 62.9412 35.0587 60.8777 34.9798C56.0646 34.7978 51.2411 34.7978 46.4361 34.4979C44.6534 34.3866 43.3291 34.8767 42.0504 35.9703C41.1344 36.7537 40.1336 37.4384 39.6523 37.8024C39.9265 41.8491 40.068 45.0689 40.3834 48.2718C40.6974 51.4636 39.4165 54.6797 40.5227 58.0882C42.5029 58.4058 44.4846 59.0764 46.4214 58.9652C51.4696 58.6763 56.4456 59.1678 61.4503 59.9343C62.6479 59.0477 63.7666 58.2201 65.0593 57.2628C64.4211 50.2881 65.8382 43.9922 66.3269 37.8533ZM59.8076 55.0275C55.8037 55.1167 51.9928 53.8668 48.7362 55.5817C46.9255 54.7593 46.0986 53.7474 45.8259 52.2123C45.2282 48.8532 44.4294 45.5236 43.9835 42.1468C43.8472 41.1121 44.5915 39.9603 44.9379 38.8445C50.7039 37.9918 55.9776 38.6499 61.5476 41.0016C62.1232 46.1198 61.0686 50.5357 59.8076 55.0275Z" fill="#F43072"/>
<path d="M27.4415 43.8479C27.5822 41.7505 27.5771 39.8366 25.6654 37.9757C24.4811 38.1334 23.5142 38.3737 22.551 38.3582C21.5701 38.3427 20.4749 37.7089 19.6333 37.9794C14.818 39.5248 10.0999 38.4614 5.35017 37.7642C4.99053 37.7112 4.58741 37.9551 3.87697 38.1511C3.24687 39.0694 2.46937 40.2021 1.80831 41.1653C2.63003 46.6653 2.69046 51.7916 0.0683313 56.6328C-0.149811 57.0359 0.214251 57.7537 0.32627 58.4354C3.30288 59.4318 6.44088 59.7118 9.29147 59.0478C14.8047 57.7633 20.007 59.0478 25.4266 60C26.3736 59.4745 27.3892 58.9115 28.4121 58.344C27.1231 53.396 27.1216 48.6175 27.4415 43.8479ZM23.2349 47.5423C23.1044 49.7104 22.5775 51.8543 22.1854 54.1956C17.5234 55.1994 12.91 55.8678 7.92145 54.7933C6.83074 50.7105 6.67966 46.5864 7.16311 42.4086C7.02161 42.2221 6.88011 42.0357 6.73935 41.8492C6.92581 41.99 7.11299 42.1307 7.29945 42.2715C12.3381 41.7372 17.2249 42.8043 22.4854 43.5089C22.7684 44.915 23.313 46.2474 23.2349 47.5423Z" fill="#F43072"/>
<path d="M2.68092 24.6972C6.16972 24.9455 9.52882 25.2794 12.8953 25.3973C16.3023 25.5174 19.7174 25.4238 23.4545 25.4238C24.1576 24.9529 25.1459 24.2911 26.0317 23.6986C25.7915 19.7507 25.5468 15.9368 25.3338 12.1216C25.2328 10.3086 25.353 8.46695 25.0714 6.68644C24.8636 5.37538 24.1657 4.1417 23.7184 2.95813C19.766 2.82032 16.1998 2.62576 12.6329 2.59186C9.06969 2.55796 5.46445 1.56084 1.17383 2.96181C1.38755 10.0212 1.56811 16.6488 1.82825 23.2741C1.84815 23.7892 2.42151 24.283 2.68092 24.6972ZM4.34868 6.85668C5.25073 6.62601 6.40187 6.00917 7.48447 6.11308C11.6336 6.51031 15.9176 6.16615 19.9075 7.86043C21.9769 12.2056 21.3881 15.9693 20.472 20.0602C19.4742 20.2776 18.351 20.6638 17.2073 20.7433C14.5918 20.9239 11.966 20.9954 9.3431 21.0352C6.60232 21.0772 4.94341 19.9482 4.70169 17.3187C4.39437 13.9677 2.72072 10.6513 4.34868 6.85668Z" fill="#F43072"/>
</svg>
