<svg width="60" height="60" viewBox="0 0 60 60" fill="none" xmlns="http://www.w3.org/2000/svg">
<path d="M15.6 0H1.2C0.5376 0 0 0.5376 0 1.2V15.6C0 16.2624 0.5376 16.8 1.2 16.8H15.6C16.2624 16.8 16.8 16.2624 16.8 15.6V1.2C16.8 0.5376 16.2624 0 15.6 0ZM14.4 14.4H2.4V2.4H14.4V14.4Z" fill="#F43072"/>
<path d="M58.8 0H44.4C43.7364 0 43.2 0.5376 43.2 1.2V15.6C43.2 16.2624 43.7364 16.8 44.4 16.8H58.8C59.4636 16.8 60 16.2624 60 15.6V1.2C60 0.5376 59.4636 0 58.8 0ZM57.6 14.4H45.6V2.4H57.6V14.4Z" fill="#F43072"/>
<path d="M33.2484 5.15122C32.7792 4.68202 32.0208 4.68202 31.5516 5.15122C31.0824 5.62042 31.0824 6.37882 31.5516 6.84802L31.9032 7.19962H25.2C24.5376 7.19962 24 7.73722 24 8.39962C24 9.06202 24.5376 9.59962 25.2 9.59962H31.9032L31.5516 9.95122C31.0824 10.4204 31.0824 11.1788 31.5516 11.648C31.7856 11.882 32.0928 11.9996 32.4 11.9996C32.7072 11.9996 33.0144 11.882 33.2484 11.648L35.6484 9.24802C36.1176 8.77882 36.1176 8.02042 35.6484 7.55122L33.2484 5.15122Z" fill="#F43072"/>
<path d="M51.6001 24C50.9365 24 50.4001 24.5376 50.4001 25.2V31.9032L50.0485 31.5516C49.5793 31.0824 48.8209 31.0824 48.3517 31.5516C47.8825 32.0208 47.8825 32.7792 48.3517 33.2484L50.7517 35.6484C50.9857 35.8824 51.2929 36 51.6001 36C51.9073 36 52.2145 35.8824 52.4485 35.6484L54.8485 33.2484C55.3177 32.7792 55.3177 32.0208 54.8485 31.5516C54.3793 31.0824 53.6209 31.0824 53.1517 31.5516L52.8001 31.9032V25.2C52.8001 24.5376 52.2637 24 51.6001 24Z" fill="#F43072"/>
<path d="M58.8 43.2002H44.4C43.7364 43.2002 43.2 43.7366 43.2 44.4002V58.8002C43.2 59.4638 43.7364 60.0002 44.4 60.0002H58.8C59.4636 60.0002 60 59.4638 60 58.8002V44.4002C60 43.7366 59.4636 43.2002 58.8 43.2002ZM57.6 57.6002H45.6V45.6002H57.6V57.6002Z" fill="#F43072"/>
<path d="M34.8001 50.3998H28.0969L28.4485 50.0482C28.9177 49.579 28.9177 48.8206 28.4485 48.3514C27.9793 47.8822 27.2209 47.8822 26.7517 48.3514L24.3517 50.7514C23.8825 51.2206 23.8825 51.979 24.3517 52.4482L26.7517 54.8482C26.9857 55.0822 27.2929 55.1998 27.6001 55.1998C27.9073 55.1998 28.2145 55.0822 28.4485 54.8482C28.9177 54.379 28.9177 53.6206 28.4485 53.1514L28.0969 52.7998H34.8001C35.4637 52.7998 36.0001 52.2634 36.0001 51.5998C36.0001 50.9362 35.4637 50.3998 34.8001 50.3998Z" fill="#F43072"/>
<path d="M15.6 43.2002H1.2C0.5376 43.2002 0 43.7366 0 44.4002V58.8002C0 59.4638 0.5376 60.0002 1.2 60.0002H15.6C16.2624 60.0002 16.8 59.4638 16.8 58.8002V44.4002C16.8 43.7366 16.2624 43.2002 15.6 43.2002ZM14.4 57.6002H2.4V45.6002H14.4V57.6002Z" fill="#F43072"/>
<path d="M8.4001 35.9986C9.0625 35.9986 9.6001 35.4622 9.6001 34.7986V28.0966L9.9517 28.4482C10.1857 28.6822 10.4929 28.7998 10.8001 28.7998C11.1073 28.7998 11.4145 28.6822 11.6485 28.4482C12.1177 27.979 12.1177 27.2206 11.6485 26.7514L9.2485 24.3514C8.7793 23.8822 8.0209 23.8822 7.5517 24.3514L5.1517 26.7514C4.6825 27.2206 4.6825 27.979 5.1517 28.4482C5.6209 28.9174 6.3793 28.9174 6.8485 28.4482L7.2001 28.0966V34.7986C7.2001 35.4622 7.7377 35.9986 8.4001 35.9986Z" fill="#F43072"/>
</svg>
