<svg width="104" height="104" viewBox="0 0 104 104" fill="none" xmlns="http://www.w3.org/2000/svg">
<rect x="6" y="6" width="92" height="92" rx="46" fill="#F43072" stroke="#494261" stroke-width="12"/>
<path d="M38.5975 47.256C38.1495 46.2 37.9255 45.44 37.9255 44.976L36.6295 45.048V43.2H43.7095V44.784C42.6535 44.752 42.1255 45.088 42.1255 45.792C42.1255 46.048 42.1895 46.328 42.3175 46.632L44.5255 52.056C44.7175 52.504 44.9575 53.096 45.2455 53.832C45.3415 54.088 45.5575 54.64 45.8935 55.488H45.9175L47.0695 52.176L48.8935 47.16C49.2455 46.056 49.5735 45.328 49.8775 44.976V44.952L48.6295 45.024L48.0295 45.048V43.2H53.4295V44.784C52.8695 44.816 52.3895 45.032 51.9895 45.432C51.5895 45.816 51.2215 46.456 50.8855 47.352L46.0855 60.144H44.1175L38.5975 47.256ZM60.5868 60.384C59.9308 60.384 59.2268 60.28 58.4748 60.072C57.7388 59.864 57.0588 59.576 56.4348 59.208H56.4108L56.4828 60.216H54.6348V54.6H56.2188C56.4268 55.912 56.9308 56.92 57.7308 57.624C58.5308 58.312 59.5068 58.656 60.6588 58.656C61.4908 58.656 62.1788 58.44 62.7228 58.008C63.2668 57.56 63.5388 57.024 63.5388 56.4C63.5388 55.888 63.3548 55.448 62.9868 55.08C62.6348 54.712 62.2348 54.424 61.7868 54.216C61.3548 54.008 60.6588 53.712 59.6988 53.328C57.9388 52.624 56.5868 51.824 55.6428 50.928C54.7148 50.032 54.2508 48.856 54.2508 47.4C54.2508 46.664 54.4348 45.952 54.8027 45.264C55.1708 44.56 55.7708 43.976 56.6028 43.512C57.4508 43.048 58.5388 42.816 59.8668 42.816C60.5548 42.816 61.2748 42.92 62.0268 43.128C62.7788 43.32 63.4028 43.6 63.8988 43.968H63.9228L63.8268 42.984H65.6988V48.576H64.1148C63.9068 47.264 63.4428 46.264 62.7228 45.576C62.0188 44.888 61.1148 44.544 60.0108 44.544C59.2908 44.544 58.6668 44.744 58.1388 45.144C57.6268 45.528 57.3708 46.016 57.3708 46.608C57.3708 47.312 57.6668 47.904 58.2588 48.384C58.8508 48.864 59.8508 49.392 61.2588 49.968C62.8748 50.608 64.1868 51.352 65.1948 52.2C66.2188 53.032 66.7308 54.144 66.7308 55.536C66.7308 56.48 66.4748 57.32 65.9628 58.056C65.4508 58.792 64.7308 59.368 63.8028 59.784C62.8748 60.184 61.8028 60.384 60.5868 60.384Z" fill="white"/>
</svg>
