<?xml version="1.0" standalone="no"?>
<!DOCTYPE svg PUBLIC "-//W3C//DTD SVG 20010904//EN"
 "http://www.w3.org/TR/2001/REC-SVG-20010904/DTD/svg10.dtd">
<svg version="1.0" xmlns="http://www.w3.org/2000/svg"
 width="1359.000000pt" height="1359.000000pt" viewBox="0 0 1359.000000 1359.000000"
 preserveAspectRatio="xMidYMid meet">
<metadata>
Created by potrace 1.11, written by Peter Selinger 2001-2013
</metadata>
<g transform="translate(0.000000,1359.000000) scale(0.100000,-0.100000)"
fill="#000000" stroke="none">
<path d="M8615 11233 c-81 -16 -80 -16 -120 -32 -16 -6 -36 -14 -44 -17 -40
-14 -156 -102 -204 -154 -148 -163 -209 -434 -141 -625 8 -22 16 -47 18 -55
12 -49 99 -176 160 -233 316 -295 841 -201 1028 184 94 195 93 396 -4 589
-127 252 -419 396 -693 343z"/>
<path d="M10350 10845 c-199 -39 -358 -184 -399 -366 -18 -79 -7 -235 23 -313
73 -193 220 -287 501 -321 28 -3 61 -8 75 -10 14 -2 45 -7 70 -10 182 -24 395
-91 585 -184 100 -50 287 -160 305 -181 3 -3 23 -19 45 -36 101 -74 265 -237
340 -339 17 -22 32 -42 35 -45 16 -16 92 -135 122 -190 20 -36 49 -90 65 -120
93 -174 216 -531 247 -720 10 -60 16 -94 21 -115 19 -90 27 -434 12 -555 -9
-76 -35 -219 -41 -228 -3 -5 -7 -19 -9 -33 -13 -67 -64 -197 -131 -334 -42
-85 -160 -271 -215 -337 -208 -253 -442 -416 -741 -518 -52 -17 -102 -33 -110
-35 -8 -2 -42 -10 -75 -18 -289 -74 -635 -81 -890 -16 -160 41 -269 89 -460
206 -71 44 -178 109 -236 145 -58 36 -165 106 -238 157 -73 50 -135 91 -138
91 -4 0 -15 7 -25 17 -10 9 -27 21 -37 27 -11 6 -77 46 -148 89 -161 98 -267
149 -413 199 -438 148 -824 142 -1160 -19 -81 -39 -245 -131 -275 -155 -5 -5
-41 -32 -80 -60 -143 -105 -269 -223 -391 -369 -70 -82 -334 -440 -462 -626
l-63 -93 -57 37 c-49 31 -228 143 -445 276 -34 22 -76 41 -93 44 -57 9 -119
-34 -130 -90 -3 -17 18 -225 31 -307 2 -14 6 -56 10 -95 3 -38 7 -81 10 -95 2
-14 7 -52 10 -85 3 -33 8 -71 10 -85 2 -14 6 -56 10 -95 3 -38 7 -81 10 -95 2
-14 7 -52 10 -85 4 -33 8 -73 10 -90 7 -56 14 -120 20 -180 3 -33 8 -71 10
-85 2 -14 7 -47 9 -75 23 -222 43 -391 52 -437 8 -42 58 -78 105 -78 22 0 48
4 58 10 10 5 29 11 42 14 13 2 58 16 99 31 41 14 84 28 94 30 11 3 49 15 85
27 36 12 68 23 71 23 3 1 41 13 85 27 188 62 431 140 440 142 6 2 17 5 25 9 8
3 85 27 170 55 85 27 236 76 335 108 99 32 185 59 191 60 40 7 136 50 154 69
29 31 36 84 16 126 -14 29 -53 57 -251 174 -129 77 -235 142 -235 145 0 5 86
129 107 155 5 6 19 26 33 45 13 19 88 121 166 225 174 233 246 309 415 437 46
34 113 63 175 74 15 3 31 7 36 10 15 9 143 5 193 -6 77 -17 200 -79 325 -165
63 -43 117 -81 120 -85 10 -13 383 -292 473 -353 107 -72 111 -74 250 -150
247 -135 569 -247 814 -283 26 -3 56 -8 67 -10 10 -2 44 -6 75 -10 31 -3 85
-9 121 -13 63 -8 455 -6 515 2 17 3 55 7 85 11 96 12 117 15 177 26 32 5 72
13 88 16 60 11 188 45 288 78 463 152 898 441 1202 800 28 32 55 64 62 71 23
24 173 235 173 244 0 5 4 11 8 13 10 4 111 176 157 267 159 319 252 620 301
981 23 169 22 501 -1 670 -3 19 -7 49 -9 65 -24 175 -101 484 -170 680 -53
153 -70 194 -132 334 -124 283 -279 540 -444 741 -289 351 -728 685 -1140 866
-186 82 -500 180 -685 213 -33 6 -71 13 -85 16 -14 3 -41 7 -60 10 -19 2 -51
7 -71 10 -71 12 -236 12 -299 0z"/>
<path d="M7895 9780 c-11 -5 -132 -45 -270 -89 -137 -44 -281 -90 -320 -102
-38 -13 -72 -24 -75 -24 -3 0 -111 -35 -240 -77 -311 -101 -759 -245 -790
-253 -66 -18 -109 -48 -124 -86 -27 -67 2 -129 75 -161 16 -7 29 -16 29 -20 0
-5 5 -8 11 -8 6 0 34 -15 62 -33 29 -18 61 -37 72 -44 41 -24 220 -132 234
-142 11 -7 3 -24 -40 -83 -30 -40 -73 -98 -94 -128 -372 -523 -563 -704 -786
-746 -99 -18 -208 -1 -327 52 -46 20 -225 132 -267 166 -106 87 -419 320 -530
395 -363 243 -749 391 -1163 443 -238 31 -566 32 -762 4 -19 -3 -48 -7 -65 -9
-312 -38 -685 -164 -965 -325 -41 -23 -84 -48 -95 -54 -62 -34 -259 -179 -350
-256 -16 -14 -75 -71 -131 -127 -328 -328 -572 -729 -718 -1178 -34 -106 -77
-272 -90 -345 -3 -19 -8 -44 -10 -55 -7 -39 -19 -120 -22 -150 -12 -130 -16
-206 -17 -305 -1 -113 10 -347 17 -359 2 -3 7 -32 10 -64 4 -32 9 -64 11 -70
2 -7 6 -29 9 -49 3 -21 11 -59 17 -85 6 -27 12 -55 14 -63 74 -355 264 -830
466 -1165 147 -245 350 -486 556 -662 31 -26 73 -62 92 -79 67 -58 236 -181
336 -244 281 -177 553 -292 900 -380 141 -35 167 -41 255 -55 19 -3 46 -7 60
-10 107 -20 259 -26 347 -14 203 28 368 170 418 360 18 66 17 210 -2 273 -37
125 -82 193 -175 262 -76 56 -148 82 -277 100 -116 16 -153 22 -191 29 -14 3
-36 7 -50 10 -258 49 -377 87 -572 185 -315 158 -579 390 -773 680 -56 84
-216 400 -231 455 -1 6 -17 48 -34 95 -39 110 -74 235 -104 385 -39 192 -48
271 -47 450 1 330 66 595 209 859 206 380 474 630 837 781 144 60 395 123 565
142 152 16 428 8 520 -17 19 -5 51 -12 70 -15 127 -22 294 -94 486 -210 268
-163 339 -207 374 -234 116 -91 521 -346 635 -400 144 -68 349 -137 465 -156
19 -3 42 -8 50 -10 97 -26 362 -38 462 -21 18 4 51 9 73 12 85 12 225 58 330
107 61 28 112 54 115 57 3 3 31 20 63 38 126 70 307 212 437 342 90 89 261
301 350 432 41 61 144 202 155 214 5 6 41 56 80 113 48 71 74 100 84 96 8 -3
138 -83 288 -177 231 -144 280 -171 312 -171 88 0 130 79 107 200 -2 10 -7 47
-10 83 -4 36 -9 76 -11 90 -3 14 -9 75 -15 135 -6 61 -13 121 -15 135 -2 14
-7 50 -10 80 -3 30 -7 73 -10 95 -3 22 -7 63 -10 90 -3 28 -8 64 -10 80 -2 17
-7 57 -10 90 -3 33 -8 74 -10 90 -2 17 -7 55 -10 86 -3 31 -7 65 -9 76 -2 11
-7 51 -11 89 -3 39 -8 85 -10 104 -3 19 -7 55 -10 80 -3 25 -7 61 -10 80 -2
19 -7 62 -10 95 -16 161 -31 185 -120 199 -16 2 -39 0 -50 -4z"/>
<path d="M4692 3630 c-425 -112 -619 -601 -386 -977 179 -288 565 -390 861
-227 403 222 458 780 105 1074 -57 49 -134 91 -222 123 -81 29 -260 32 -358 7z"/>
</g>
</svg>
