<svg width="105" height="64" viewBox="0 0 105 64" fill="none" xmlns="http://www.w3.org/2000/svg">
<g clip-path="url(#clip0)">
<path d="M100.36 61.5442C100.768 61.5679 101.177 61.5147 101.566 61.3875C101.681 61.3376 101.777 61.2525 101.841 61.1446C101.905 61.0366 101.932 60.9113 101.921 60.7865C101.921 60.5551 101.768 60.3498 101.461 60.1781C101.015 59.9413 100.549 59.7428 100.069 59.5846C99.6189 59.4329 99.1766 59.2585 98.7441 59.062C98.3762 58.8996 98.0361 58.6805 97.7362 58.4125C97.4598 58.1617 97.2397 57.8551 97.0905 57.5129C96.9282 57.1127 96.8507 56.6831 96.8628 56.2513C96.8489 55.8079 96.9465 55.3681 97.1468 54.9723C97.347 54.5764 97.6433 54.2371 98.0087 53.9856C98.7552 53.4294 99.8191 53.1532 101.148 53.1532C101.79 53.1515 102.431 53.2065 103.063 53.3174C103.558 53.4051 104.046 53.5298 104.522 53.6907L103.981 55.9303C103.608 55.8146 103.234 55.7101 102.805 55.6205C102.336 55.5266 101.858 55.4816 101.379 55.4861C100.409 55.4861 99.9198 55.7362 99.9198 56.2326C99.9186 56.3393 99.9403 56.4449 99.9833 56.5424C100.041 56.6512 100.127 56.7418 100.233 56.8037C100.396 56.9088 100.567 57 100.745 57.0762C100.958 57.177 101.234 57.2815 101.566 57.401C102.144 57.592 102.708 57.824 103.253 58.0952C103.64 58.2864 103.995 58.5384 104.302 58.8418C104.548 59.0896 104.733 59.3911 104.843 59.7227C104.954 60.0855 105.006 60.4633 105 60.8425C105.02 61.2973 104.918 61.7491 104.704 62.1509C104.49 62.5526 104.172 62.8897 103.783 63.1269C102.969 63.6383 101.824 63.8995 100.338 63.8995C99.5228 63.9155 98.7085 63.8366 97.9117 63.6644C97.4568 63.5714 97.0091 63.4467 96.5716 63.2911L97.0905 60.947C97.6187 61.1417 98.1617 61.294 98.7142 61.4024C99.256 61.5129 99.8074 61.5692 100.36 61.5704V61.5442ZM88.091 57.763C87.8111 58.7447 87.5162 59.7227 87.2064 60.6894C86.8966 61.6562 86.5643 62.6342 86.2172 63.6159H83.8022C83.5521 63.0746 83.2833 62.4289 82.9884 61.6786C82.6936 60.9283 82.395 60.1109 82.0814 59.2262C81.7679 58.3416 81.4469 57.4047 81.1221 56.4193C80.7974 55.4338 80.4764 54.4335 80.1703 53.4331H83.4401C83.5483 53.896 83.6715 54.4036 83.8134 54.9523C83.9552 55.501 84.0821 56.0721 84.2314 56.647C84.3807 57.2218 84.53 57.8153 84.6906 58.4013C84.8511 58.9873 85.0153 59.5547 85.1833 60.0959C85.3624 59.5286 85.5565 58.9463 85.7133 58.3528C85.8701 57.7593 86.053 57.1733 86.2135 56.5984C86.374 56.0236 86.527 55.4786 86.6726 54.9337C86.8182 54.3887 86.9451 53.896 87.0459 53.4406H89.2855C89.3974 53.9034 89.5206 54.4036 89.6587 54.9337C89.7968 55.4637 89.9424 56.0236 90.0955 56.5984C90.2485 57.1733 90.409 57.7593 90.577 58.3528C90.7449 58.9463 90.9166 59.5286 91.0958 60.0959C91.2638 59.5547 91.4317 58.9762 91.5997 58.4013C91.7677 57.8265 91.9207 57.2293 92.07 56.647C92.2193 56.0647 92.3537 55.501 92.4881 54.9523C92.6225 54.4036 92.7419 53.896 92.8614 53.4331H96.0864C95.7803 54.441 95.4643 55.4363 95.1383 56.4193C94.8098 57.4047 94.4925 58.3416 94.1753 59.2262C93.858 60.1109 93.5594 60.9283 93.2608 61.6786C92.9622 62.4289 92.6859 63.0746 92.4358 63.6159H90.0208C89.6724 62.6354 89.3327 61.6599 89.0018 60.6894C88.6733 59.7227 88.3672 58.7447 88.091 57.763ZM76.6317 58.5096C76.6736 57.7646 76.4732 57.026 76.0606 56.4043C75.8599 56.165 75.6091 55.9726 75.326 55.8405C75.0429 55.7085 74.7344 55.6401 74.422 55.6401C74.1096 55.6401 73.801 55.7085 73.5179 55.8405C73.2348 55.9726 72.9841 56.165 72.7833 56.4043C72.3604 57.0219 72.1543 57.7623 72.1973 58.5096C72.1568 59.2612 72.3626 60.0056 72.7833 60.6297C72.9807 60.8744 73.2302 61.0717 73.5138 61.2073C73.7974 61.3429 74.1077 61.4133 74.422 61.4133C74.7363 61.4133 75.0466 61.3429 75.3301 61.2073C75.6137 61.0717 75.8633 60.8744 76.0606 60.6297C76.4728 59.9994 76.6728 59.254 76.6317 58.5021V58.5096ZM79.7933 58.5096C79.8026 59.2589 79.6761 60.0038 79.42 60.7081C79.1864 61.3481 78.8171 61.93 78.3375 62.4139C77.8547 62.8922 77.2776 63.2647 76.6429 63.5076C75.9336 63.7692 75.1816 63.8958 74.4257 63.8809C73.6772 63.8951 72.9326 63.7685 72.2309 63.5076C71.5951 63.2646 71.0168 62.8922 70.5325 62.4139C70.0468 61.9277 69.6657 61.3472 69.4127 60.7081C69.1419 60.0072 69.0076 59.2609 69.0171 58.5096C69.0068 57.7595 69.1451 57.0149 69.4239 56.3185C69.6761 55.6856 70.0575 55.1123 70.5437 54.6351C71.0327 54.1609 71.6131 53.7914 72.2496 53.5488C72.9378 53.2908 73.6684 53.1642 74.4033 53.1756C75.1456 53.1629 75.8838 53.2895 76.5795 53.5488C77.213 53.7905 77.7899 54.1603 78.2741 54.6351C78.7614 55.1113 79.143 55.6849 79.3939 56.3185C79.6657 57.014 79.8013 57.7554 79.7933 58.5021V58.5096ZM57.8191 53.7728C58.4905 53.603 59.1709 53.4709 59.8571 53.3771C60.7223 53.2512 61.5956 53.1888 62.47 53.1905C63.2576 53.1698 64.043 53.2847 64.7917 53.5302C65.3542 53.7201 65.8591 54.0503 66.2586 54.4895C66.6284 54.92 66.8918 55.4315 67.0276 55.9825C67.1875 56.6017 67.2653 57.2393 67.259 57.8787V63.6345H64.1646V58.2296C64.1646 57.3014 64.0327 56.642 63.7689 56.2513C63.5039 55.878 63.0224 55.6727 62.2759 55.6727C62.0556 55.6727 61.8205 55.6727 61.5704 55.6989C61.3203 55.725 61.0963 55.7437 60.9022 55.7698V63.6345H57.8041L57.8191 53.7728ZM52.8098 63.6159C52.5187 63.1779 52.174 62.7051 51.7759 62.1974C51.3839 61.6898 50.9547 61.1822 50.4993 60.6633C50.0439 60.1445 49.5587 59.6518 49.0585 59.1702C48.5871 58.7219 48.0884 58.303 47.5654 57.9161V63.6047H44.318V50.167H47.5654V55.2435C48.4015 54.426 49.2451 53.575 50.1074 52.6829C50.9696 51.7908 51.7647 50.9621 52.4925 50.1969H56.3447C55.3642 51.2819 54.3775 52.3283 53.3846 53.3361C52.3918 54.3402 51.3429 55.3517 50.2492 56.367C51.4693 57.3186 52.5943 58.3862 53.6086 59.5547C54.725 60.8433 55.7573 62.2023 56.6993 63.6233L52.8098 63.6159ZM39.0624 58.5021C39.1042 57.7571 38.9039 57.0186 38.4913 56.3969C38.3039 56.1425 38.0567 55.9382 37.7715 55.8022C37.4863 55.6661 37.172 55.6024 36.8564 55.6167C36.5412 55.6021 36.2271 55.664 35.941 55.7973C35.655 55.9305 35.4055 56.1312 35.214 56.3819C34.7942 57.0008 34.5896 57.7405 34.6317 58.4872C34.5918 59.2382 34.7961 59.982 35.214 60.6073C35.4019 60.8632 35.6502 61.0687 35.9368 61.2055C36.2233 61.3422 36.5392 61.406 36.8564 61.3912C37.1726 61.4071 37.4878 61.3438 37.7734 61.2069C38.0589 61.07 38.3057 60.8639 38.4913 60.6073C38.8988 59.9833 39.0987 59.2465 39.0624 58.5021ZM42.2277 58.5021C42.2352 59.2513 42.1088 59.9959 41.8544 60.7006C41.6193 61.3399 41.2502 61.9215 40.772 62.4065C40.2877 62.8848 39.7094 63.2572 39.0736 63.5001C37.6485 64.0178 36.0867 64.0178 34.6616 63.5001C34.0269 63.2572 33.4497 62.8847 32.9669 62.4065C32.4813 61.9201 32.1003 61.3396 31.8471 60.7006C31.5858 59.9977 31.4592 59.2519 31.4739 58.5021C31.4643 57.7525 31.6012 57.0082 31.877 56.311C32.1306 55.6789 32.5118 55.1058 32.9968 54.6276C33.49 54.1534 34.074 53.7839 34.7138 53.5414C35.4007 53.283 36.1301 53.1564 36.8638 53.1681C37.6062 53.1551 38.3444 53.2817 39.04 53.5414C39.6759 53.7788 40.2543 54.1485 40.7368 54.6259C41.2194 55.1033 41.5952 55.6777 41.8395 56.311C42.1084 57.0097 42.2403 57.7536 42.2277 58.5021ZM20.2497 63.6159V49.0584L23.3516 48.5919V53.4742C23.6139 53.397 23.8806 53.3359 24.1504 53.2913C24.4631 53.2329 24.7804 53.2029 25.0985 53.2017C25.8519 53.1812 26.6029 53.2963 27.3157 53.5414C27.8639 53.7347 28.3544 54.0634 28.7416 54.4969C29.1042 54.9291 29.36 55.4406 29.4881 55.99C29.6391 56.6106 29.7118 57.2476 29.7046 57.8862V63.642H26.6065V58.2296C26.6065 57.3014 26.482 56.642 26.2332 56.2513C25.9794 55.878 25.4867 55.6727 24.8111 55.6727C24.5483 55.6712 24.2859 55.6937 24.0272 55.7399C23.7846 55.7847 23.5681 55.8332 23.374 55.8855V63.6345L20.2497 63.6159ZM10.9405 51.6228C11.1047 52.1528 11.2913 52.7426 11.4892 53.4145C11.687 54.0864 11.9072 54.7694 12.1349 55.4786C12.3626 56.1878 12.594 56.9008 12.8292 57.61C13.0643 58.3192 13.2958 58.9799 13.516 59.5846C13.6952 58.9276 13.8893 58.2109 14.0722 57.4346C14.2551 56.6582 14.4454 55.8594 14.6022 55.0344C14.759 54.2095 14.9344 53.3809 15.0949 52.5634C15.2554 51.746 15.4047 50.9509 15.5466 50.1894H18.906C18.4083 52.429 17.8459 54.7085 17.2188 57.0277C16.5917 59.3469 15.9049 61.543 15.1584 63.6159H12.1722C11.687 62.3716 11.2154 61.0702 10.7576 59.7115C10.2997 58.3528 9.84927 56.9841 9.40633 55.6055C8.9609 56.9742 8.51795 58.3428 8.0775 59.7115C7.63704 61.0801 7.18415 62.3816 6.71881 63.6159H3.73267C2.98614 61.538 2.29932 59.3419 1.67224 57.0277C1.04515 54.7134 0.487736 52.434 0 50.1894H3.51618C3.65304 50.9509 3.80732 51.7422 3.97903 52.5634C4.14326 53.3809 4.3187 54.2058 4.49787 55.0344C4.67704 55.8631 4.87113 56.6619 5.05404 57.4346C5.23694 58.2072 5.4273 58.9276 5.62887 59.5846C5.87771 58.955 6.12656 58.2831 6.3754 57.5689C6.62424 56.8547 6.85443 56.1455 7.06594 55.4413C7.2899 54.7284 7.49147 54.0453 7.68183 53.3846C7.8722 52.7239 8.03644 52.1379 8.18948 51.6228H10.9405Z" fill="white"/>
<path fill-rule="evenodd" clip-rule="evenodd" d="M48.9464 16.0505C48.3364 16.5599 47.5925 16.8826 46.8038 16.9799C46.0087 17.0508 45.3107 16.797 44.441 16.2334C43.5713 15.6697 42.5747 14.7888 41.3914 13.9938C40.0767 13.0906 38.5963 12.4563 37.0354 12.1274C35.0666 11.7374 33.0365 11.7794 31.0855 12.2506C29.0417 12.7617 27.1637 13.7901 25.6321 15.2368C24.1264 16.693 22.9845 18.4832 22.2988 20.4625C21.5973 22.4314 21.3921 24.543 21.7016 26.6102C22.0498 28.7413 22.7673 30.7952 23.8218 32.6795C24.5918 34.0666 25.6192 35.2942 26.849 36.2965C27.9186 37.2189 29.1217 37.974 30.4174 38.5361C31.6279 39.0339 32.8955 39.38 34.1911 39.5663C35.184 39.7007 35.7028 39.626 36.1321 39.4021C36.3524 39.2908 36.5459 39.133 36.6992 38.9397C36.8526 38.7464 36.9622 38.5221 37.0205 38.2823C37.1342 37.7638 37.0489 37.2216 36.7816 36.7631C36.6343 36.5532 36.4432 36.3777 36.2215 36.2489C35.9998 36.12 35.7528 36.0407 35.4975 36.0165C34.6958 35.915 33.8998 35.7729 33.1124 35.591C32.0248 35.2808 30.9967 34.7913 30.0702 34.1427C28.9793 33.3949 28.0553 32.4289 27.3566 31.3059C26.5639 29.992 25.9998 28.5532 25.6881 27.0507C25.3714 25.6437 25.3447 24.1869 25.6097 22.7693C25.8816 21.4932 26.4266 20.2911 27.2073 19.2456C27.9456 18.1939 28.928 17.337 30.0702 16.7485C31.3174 16.1484 32.671 15.8008 34.053 15.7257C35.2142 15.6519 36.378 15.8236 37.4684 16.2296C37.5841 16.2707 37.6998 16.3155 37.8118 16.364H37.8678C38.2672 16.5208 43.1831 19.6786 44.6799 20.3319C46.1767 20.9851 42.6083 17.663 43.8811 17.719C45.0418 17.8017 46.2058 17.6139 47.2816 17.1703H47.3114H47.3413H47.3712H47.401H47.4309H47.4608H47.4906L47.5205 17.1516H47.5503H47.5802H47.6101H47.6362H47.6623H47.6922H47.7183H47.7444H47.7743L47.8004 17.133H47.8303H47.8564H47.8825H47.9087H47.9348H47.9647L47.9908 17.1143H48.0169H48.0431H48.0692L48.0916 17.0956H48.1177L48.1438 17.077H48.17H48.1961H48.2185H48.2409H48.2633L48.2857 17.0583H48.3118L48.3379 17.0396H48.3603H48.3827L48.4089 17.021H48.4312L48.4574 17.0023H48.4798H48.5059H48.5283H48.5507H48.5731H48.5955L48.6179 16.9836H48.6403H48.6627L48.6851 16.965H48.7075L48.7523 16.9277H48.7709H48.7896L48.812 16.909H48.8344H48.8568V16.8903L48.9464 16.0505Z" fill="#A43E88"/>
<path d="M48.9464 16.0505C48.3364 16.5599 47.5925 16.8826 46.8038 16.9799C46.0087 17.0508 45.3107 16.797 44.441 16.2334C43.5713 15.6697 42.5747 14.7888 41.3914 13.9938C40.0767 13.0906 38.5963 12.4563 37.0354 12.1274C35.0666 11.7374 33.0365 11.7794 31.0855 12.2506C29.0417 12.7617 27.1637 13.7901 25.6321 15.2368C24.1264 16.693 22.9845 18.4832 22.2988 20.4625C21.5973 22.4314 21.3921 24.543 21.7016 26.6102C22.0498 28.7413 22.7673 30.7952 23.8218 32.6795C24.5918 34.0666 25.6192 35.2942 26.849 36.2965C27.9195 37.2176 29.1224 37.9725 30.4174 38.5361C31.6279 39.0339 32.8955 39.38 34.1911 39.5663C35.184 39.7007 35.7028 39.626 36.1321 39.4021C36.3524 39.2908 36.5459 39.133 36.6992 38.9397C36.8526 38.7464 36.9622 38.5221 37.0205 38.2823C37.1342 37.7638 37.0489 37.2216 36.7816 36.7631C36.6343 36.5532 36.4432 36.3777 36.2215 36.2489C35.9998 36.12 35.7528 36.0407 35.4975 36.0165C34.6958 35.915 33.8998 35.7729 33.1124 35.591C32.0248 35.2808 30.9967 34.7913 30.0702 34.1427C28.9793 33.3949 28.0553 32.4289 27.3566 31.3059C26.5636 29.9925 26.0006 28.5535 25.6918 27.0507C25.3721 25.6441 25.3442 24.187 25.6097 22.7693C25.8816 21.4932 26.4266 20.2911 27.2073 19.2456C27.9456 18.1939 28.928 17.337 30.0702 16.7485C31.3174 16.1484 32.671 15.8008 34.053 15.7257C35.2142 15.6519 36.378 15.8236 37.4684 16.2296C37.5841 16.2707 37.6998 16.3155 37.8118 16.364H37.8678C38.2672 16.5208 43.1831 19.6786 44.6799 20.3318C46.1767 20.9851 42.6083 17.663 43.8811 17.719C45.0418 17.8017 46.2058 17.6139 47.2816 17.1703H47.3114H47.3413H47.3712H47.401H47.4309H47.4608H47.4906L47.5205 17.1516H47.5503H47.5802H47.6101H47.6362H47.6623H47.6922H47.7183H47.7444H47.7743L47.8004 17.133H47.8303H47.8564H47.8825H47.9087H47.9348H47.9647L47.9908 17.1143H48.0169H48.0431H48.0692L48.0916 17.0956H48.1177L48.1438 17.077H48.17H48.1961H48.2185H48.2409H48.2633L48.2857 17.0583H48.3118L48.3379 17.0396H48.3603H48.3827L48.4089 17.021H48.4312L48.4574 17.0023H48.4798H48.5059H48.5283H48.5507H48.5731H48.5955L48.6179 16.9836H48.6403H48.6627L48.6851 16.965H48.7075L48.7523 16.9277H48.7709H48.7896L48.812 16.909H48.8344H48.8568V16.8903L48.9464 16.0505Z" stroke="#A43E88" stroke-width="1.34003" stroke-linecap="round" stroke-linejoin="round"/>
<path fill-rule="evenodd" clip-rule="evenodd" d="M60.8726 5.64751C60.3888 5.52256 59.9529 5.25699 59.62 4.88436C59.2872 4.51174 59.0722 4.0488 59.0024 3.55404C58.9325 3.05928 59.0109 2.55492 59.2276 2.10471C59.4444 1.65449 59.7897 1.27863 60.22 1.02463C60.6503 0.770632 61.1462 0.649894 61.6451 0.677678C62.144 0.705462 62.6234 0.880522 63.0228 1.18073C63.4223 1.48094 63.7237 1.89282 63.8891 2.36432C64.0545 2.83581 64.0764 3.34576 63.9521 3.8297C63.7842 4.4788 63.3657 5.03479 62.7884 5.37561C62.211 5.71642 61.522 5.81421 60.8726 5.64751Z" fill="#F43072"/>
<path d="M60.8726 5.64751C60.3888 5.52256 59.9529 5.25699 59.62 4.88436C59.2872 4.51174 59.0722 4.0488 59.0024 3.55404C58.9325 3.05928 59.0109 2.55492 59.2276 2.10471C59.4444 1.65449 59.7897 1.27863 60.22 1.02463C60.6503 0.770632 61.1462 0.649894 61.6451 0.677678C62.144 0.705462 62.6234 0.880522 63.0228 1.18073C63.4223 1.48094 63.7237 1.89282 63.8891 2.36432C64.0545 2.83581 64.0764 3.34576 63.9521 3.8297C63.7842 4.4788 63.3657 5.03479 62.7884 5.37561C62.211 5.71642 61.522 5.81421 60.8726 5.64751V5.64751Z" stroke="#F43072" stroke-width="1.34003" stroke-linecap="round" stroke-linejoin="round"/>
<path fill-rule="evenodd" clip-rule="evenodd" d="M55.8334 26.0876C56.4443 25.5798 57.1877 25.2573 57.9759 25.1582C58.771 25.0872 59.469 25.3411 60.3387 25.9047C61.2084 26.4683 62.205 27.3492 63.3883 28.1443C64.702 29.0469 66.1811 29.6811 67.7406 30.0106C69.7167 30.4035 71.7546 30.3614 73.7129 29.8874C75.7562 29.3778 77.6333 28.3492 79.1626 26.9013C80.6704 25.4468 81.8126 23.6561 82.4958 21.6756C83.1988 19.7083 83.4052 17.5978 83.0968 15.5316C82.7492 13.3992 82.0317 11.344 80.9766 9.45855C80.2033 8.07264 79.175 6.84544 77.9457 5.84159C76.8758 4.91967 75.6727 4.16462 74.3773 3.60199C73.1676 3.10519 71.9015 2.75919 70.6073 2.57177C69.6144 2.4374 69.0956 2.50832 68.6663 2.73601C68.4482 2.84451 68.2559 2.99867 68.1027 3.18802C67.9494 3.37737 67.8386 3.59748 67.7779 3.83341C67.6644 4.35307 67.7496 4.89641 68.0168 5.35634C68.1641 5.56623 68.3552 5.74166 68.5769 5.87055C68.7986 5.99943 69.0456 6.0787 69.3008 6.10288C69.9167 6.22606 70.7342 6.26712 71.686 6.5284C72.773 6.84011 73.8009 7.32948 74.7281 7.97668C75.8123 8.73116 76.7296 9.70059 77.4231 10.8247C78.2152 12.1372 78.7782 13.5749 79.0879 15.0762C79.4046 16.4806 79.4325 17.9346 79.17 19.3501C78.8964 20.6257 78.3516 21.8274 77.5724 22.8738C76.8324 23.9248 75.8505 24.7826 74.7095 25.3747C73.4617 25.9727 72.1084 26.319 70.7267 26.3937C69.5646 26.4665 68.4001 26.2962 67.3076 25.8935L66.9679 25.7591L66.9119 25.7367C66.5125 25.5687 61.5892 22.396 60.0961 21.7577C58.603 21.1194 62.1677 24.4266 60.8986 24.3706C59.7299 24.3004 58.5607 24.5022 57.4832 24.9603H57.4496H57.4198H57.3899H57.36H57.3302H57.3003H57.2704H57.2406H57.2145H57.1883H57.1585H57.1286H57.0987H57.0726H57.0428H57.0166H56.9905H56.9606H56.9345H56.9084L56.8823 24.979H56.8561H56.8263L56.8001 24.9977H56.774L56.7367 25.3821H56.7105H56.6844L56.6583 25.4008H56.6322H56.606H56.5799H56.5538H56.5277H56.5015H56.4791H56.4567L56.4343 25.4194H56.4082H56.3858H56.3634H56.341H56.3186H56.2925H56.2701H56.2477H56.2253H56.2029L56.1842 25.4381H56.1619H56.1394H56.1171H56.0984L56.0573 25.4754H56.0387H56.02L56.0013 25.4941H55.9789L55.8334 26.0876Z" fill="#F26588"/>
<path d="M55.8334 26.0876C56.4443 25.5798 57.1877 25.2573 57.9759 25.1582C58.771 25.0872 59.469 25.3411 60.3387 25.9047C61.2084 26.4683 62.205 27.3492 63.3883 28.1443C64.702 29.0469 66.1811 29.6811 67.7406 30.0106C69.7167 30.4035 71.7546 30.3614 73.7129 29.8874C75.7562 29.3778 77.6333 28.3492 79.1626 26.9013C80.6704 25.4468 81.8126 23.6561 82.4958 21.6756C83.1988 19.7083 83.4052 17.5978 83.0968 15.5316C82.7492 13.3992 82.0317 11.344 80.9766 9.45855C80.2033 8.07264 79.175 6.84544 77.9457 5.84159C76.8765 4.92054 75.6748 4.16556 74.381 3.60199C73.17 3.10558 71.9026 2.75959 70.6073 2.57177C69.6144 2.4374 69.0956 2.50832 68.6663 2.73601C68.4482 2.84451 68.2559 2.99867 68.1027 3.18802C67.9494 3.37737 67.8386 3.59748 67.7779 3.83341C67.6644 4.35307 67.7496 4.89641 68.0168 5.35634C68.1641 5.56623 68.3552 5.74166 68.5769 5.87055C68.7986 5.99943 69.0456 6.0787 69.3008 6.10288C69.9167 6.22606 70.7342 6.26712 71.686 6.5284C72.773 6.84011 73.8009 7.32948 74.7281 7.97668C75.8123 8.73116 76.7296 9.70059 77.4231 10.8247C78.2152 12.1372 78.7782 13.5749 79.0879 15.0762C79.4046 16.4806 79.4325 17.9346 79.17 19.3501C78.8964 20.6257 78.3516 21.8274 77.5724 22.8738C76.8324 23.9248 75.8505 24.7826 74.7095 25.3747C73.4617 25.9727 72.1084 26.319 70.7267 26.3937C69.5646 26.4665 68.4001 26.2962 67.3076 25.8935L66.9679 25.7591L66.9119 25.7367C66.5125 25.5687 61.5892 22.396 60.0961 21.7577C58.603 21.1194 62.1677 24.4266 60.8986 24.3706C59.7299 24.3004 58.5607 24.5022 57.4832 24.9603H57.4496H57.4198H57.3899H57.36H57.3302H57.3003H57.2704H57.2406H57.2145H57.1846H57.1547H57.1249H57.095H57.0689H57.039H57.0129H56.9868H56.9569H56.9308H56.9046L56.8785 24.979H56.8524H56.8225L56.7964 24.9977H56.7703L56.7367 25.3821H56.7105H56.6844L56.6583 25.4008H56.6322H56.606H56.5799H56.5538H56.5277H56.5015H56.4791H56.4567L56.4343 25.4194H56.4082H56.3858H56.3634H56.341H56.3186H56.2925H56.2701H56.2477H56.2253H56.2029L56.1842 25.4381H56.1619H56.1394H56.1171H56.0984L56.0573 25.4754H56.0387H56.02L56.0013 25.4941H55.9789L55.8334 26.0876Z" stroke="#F26588" stroke-width="1.34003" stroke-linecap="round" stroke-linejoin="round"/>
<path fill-rule="evenodd" clip-rule="evenodd" d="M43.9111 36.4756C44.3952 36.5999 44.8316 36.865 45.1651 37.2374C45.4986 37.6097 45.7141 38.0726 45.7845 38.5675C45.8549 39.0624 45.7769 39.567 45.5604 40.0176C45.3439 40.4681 44.9987 40.8444 44.5684 41.0987C44.1381 41.353 43.642 41.474 43.1429 41.4464C42.6438 41.4187 42.1641 41.2437 41.7645 40.9434C41.3649 40.6431 41.0633 40.2311 40.898 39.7594C40.7326 39.2877 40.7108 38.7775 40.8354 38.2934C41.0023 37.6446 41.4201 37.0886 41.9969 36.7478C42.5736 36.4069 43.2622 36.309 43.9111 36.4756Z" fill="#AC8CED"/>
<path d="M43.9111 36.4756C44.3952 36.5999 44.8316 36.865 45.1651 37.2374C45.4986 37.6097 45.7141 38.0726 45.7845 38.5675C45.8549 39.0624 45.7769 39.567 45.5604 40.0176C45.3439 40.4681 44.9987 40.8444 44.5684 41.0987C44.1381 41.353 43.642 41.474 43.1429 41.4464C42.6438 41.4187 42.1641 41.2437 41.7645 40.9434C41.3649 40.6431 41.0633 40.2311 40.898 39.7594C40.7326 39.2877 40.7108 38.7775 40.8354 38.2934C41.0023 37.6446 41.4201 37.0886 41.9969 36.7478C42.5736 36.4069 43.2622 36.309 43.9111 36.4756Z" stroke="#AC8CED" stroke-width="1.34003" stroke-linecap="round" stroke-linejoin="round"/>
<path fill-rule="evenodd" clip-rule="evenodd" d="M55.8334 26.0876C56.4443 25.5798 57.1877 25.2573 57.9759 25.1581C58.771 25.0872 59.469 25.341 60.3387 25.9047C61.2084 26.4683 62.205 27.3492 63.3883 28.1443C64.702 29.0469 66.1811 29.6811 67.7406 30.0106C69.7167 30.4034 71.7546 30.3614 73.7129 29.8874C75.7562 29.3778 77.6333 28.3492 79.1626 26.9013C80.6704 25.4468 81.8126 23.6561 82.4958 21.6756C83.1988 19.7082 83.4052 17.5978 83.0968 15.5316C82.7492 13.3992 82.0317 11.3439 80.9766 9.45853C80.2033 8.07262 79.175 6.84542 77.9457 5.84157C76.8758 4.91965 75.6727 4.1646 74.3773 3.60197C73.1675 3.10564 71.9014 2.75965 70.6073 2.57175C69.6144 2.43364 69.0956 2.5083 68.6663 2.73599C68.4482 2.84449 68.2559 2.99865 68.1027 3.188C67.9494 3.37735 67.8386 3.59746 67.7779 3.83339C67.6644 4.35305 67.7496 4.89639 68.0168 5.35632C68.1641 5.56621 68.3552 5.74164 68.5769 5.87053C68.7986 5.99941 69.0456 6.07868 69.3008 6.10286C69.9167 6.22604 70.7342 6.2671 71.686 6.52838C72.773 6.84009 73.8009 7.32946 74.7281 7.97666C75.8123 8.73114 76.7296 9.70057 77.4231 10.8247C78.2152 12.1372 78.7782 13.5749 79.0879 15.0762C79.4046 16.4805 79.4325 17.9346 79.17 19.3501C78.8964 20.6257 78.3516 21.8274 77.5724 22.8737C76.8324 23.9248 75.8505 24.7826 74.7095 25.3746C73.4617 25.9727 72.1084 26.3189 70.7267 26.3937C69.5646 26.4665 68.4001 26.2961 67.3076 25.8935L66.9642 25.7554L66.9119 25.733C66.5125 25.5687 61.5892 22.396 60.0961 21.7577C58.603 21.1194 62.1677 24.4265 60.8986 24.3705C59.7298 24.3001 58.5607 24.502 57.4832 24.9603H57.4496H57.4198H57.3899H57.36H57.3302H57.3003H57.2704H57.2406H57.2107H57.1846H57.1547H57.1249H57.095H57.0689H57.039H57.0129H56.9868H56.9569H56.9308H56.9046L56.8785 24.979H56.8524H56.8225H56.7964H56.7703L56.7367 25.3821H56.7105H56.6844L56.6583 25.4008H56.6322H56.606H56.5799H56.5538H56.5277H56.5015H56.4791H56.4567L56.4343 25.4194H56.4082H56.3858H56.3634H56.341H56.3186H56.2925H56.2701H56.2477H56.2253H56.2029L56.1842 25.4381H56.1619H56.1394H56.1171H56.0984L56.0536 25.4754H56.0312H56.0125H55.9939L55.9752 25.4941H55.9528L55.8334 26.0876Z" fill="#A4448B"/>
<path d="M55.8334 26.0876C56.4443 25.5798 57.1877 25.2573 57.9759 25.1581C58.771 25.0872 59.469 25.341 60.3387 25.9047C61.2084 26.4683 62.205 27.3492 63.3883 28.1443C64.702 29.0469 66.1811 29.6811 67.7406 30.0106C69.7167 30.4034 71.7546 30.3614 73.7129 29.8874C75.7562 29.3778 77.6333 28.3492 79.1626 26.9013C80.6704 25.4468 81.8126 23.6561 82.4958 21.6756C83.1988 19.7082 83.4052 17.5978 83.0968 15.5316C82.7492 13.3992 82.0317 11.3439 80.9766 9.45853C80.2033 8.07262 79.175 6.84542 77.9457 5.84157C76.8758 4.91965 75.6727 4.1646 74.3773 3.60197C73.1676 3.10517 71.9015 2.75917 70.6073 2.57175C69.6144 2.43364 69.0956 2.5083 68.6663 2.73599C68.4482 2.84449 68.2559 2.99865 68.1027 3.188C67.9494 3.37735 67.8386 3.59746 67.7779 3.83339C67.6644 4.35305 67.7496 4.89639 68.0168 5.35632C68.1641 5.56621 68.3552 5.74164 68.5769 5.87053C68.7986 5.99941 69.0456 6.07868 69.3008 6.10286C69.9167 6.22604 70.7342 6.2671 71.686 6.52838C72.773 6.84009 73.8009 7.32946 74.7281 7.97666C75.8123 8.73114 76.7296 9.70057 77.4231 10.8247C78.2152 12.1372 78.7782 13.5749 79.0879 15.0762C79.4046 16.4805 79.4325 17.9346 79.17 19.3501C78.8964 20.6257 78.3516 21.8274 77.5724 22.8737C76.8324 23.9248 75.8505 24.7826 74.7095 25.3746C73.4617 25.9727 72.1084 26.3189 70.7267 26.3936C69.5646 26.4665 68.4001 26.2961 67.3076 25.8935L66.9679 25.7591L66.9119 25.7367C66.5125 25.5687 61.5892 22.396 60.0961 21.7577C58.603 21.1194 62.1677 24.4265 60.8986 24.3705C59.7298 24.3001 58.5607 24.502 57.4832 24.9603H57.4496H57.4198H57.3899H57.36H57.3302H57.3003H57.2704H57.2406H57.2107H57.1846H57.1547H57.1249H57.095H57.0689H57.039H57.0129H56.9868H56.9569H56.9308H56.9046L56.8785 24.979H56.8524H56.8225H56.7964H56.7703L56.7367 25.3821H56.7105H56.6844L56.6583 25.4008H56.6322H56.606H56.5799H56.5538H56.5277H56.5015H56.4791H56.4567L56.4343 25.4194H56.4082H56.3858H56.3634H56.341H56.3186H56.2925H56.2701H56.2477H56.2253H56.2029L56.1842 25.4381H56.1619H56.1394H56.1171H56.0984L56.0573 25.4754H56.0349H56.0163H55.9976L55.9789 25.4941H55.9566L55.8334 26.0876Z" stroke="#A4448B" stroke-width="1.34003" stroke-linecap="round" stroke-linejoin="round"/>
<path fill-rule="evenodd" clip-rule="evenodd" d="M52.9552 29.895C53.3285 29.4172 55.0119 26.9835 55.5382 26.5057C56.0645 26.0279 55.8256 26.2519 55.9675 26.1324C56.466 25.6815 57.0266 25.3044 57.6322 25.0126C58.7068 24.5636 59.8704 24.3682 61.0327 24.4415C62.2946 24.5053 63.5459 24.7043 64.7654 25.035C65.5401 25.237 66.3018 25.4863 67.046 25.7816L67.102 25.8039C66.2034 25.4104 65.3478 24.925 64.5489 24.3557C63.5962 23.6525 62.6083 22.9984 61.5889 22.396C60.6278 21.8699 59.5794 21.5222 58.4945 21.3695C57.471 21.213 56.4243 21.3289 55.4598 21.7055C54.3728 22.1826 53.3813 22.8529 52.5334 23.6838C51.6338 24.5199 50.6671 26.0204 50.1482 26.711C49.7728 27.1993 49.4299 27.7118 49.1218 28.2451L46.0647 26.3415L46.9904 34.5757L55.2657 31.9069L52.6305 30.3391L52.9552 29.895Z" fill="#AC8CED"/>
<path d="M52.9552 29.895C53.3285 29.4172 55.0119 26.9835 55.5382 26.5057C56.0645 26.0279 55.8256 26.2519 55.9675 26.1324C56.466 25.6815 57.0266 25.3044 57.6322 25.0126C58.7068 24.5636 59.8704 24.3682 61.0327 24.4415C62.2946 24.5053 63.5459 24.7043 64.7654 25.035C65.5401 25.237 66.3018 25.4863 67.046 25.7816L67.102 25.8039C66.2034 25.4104 65.3478 24.925 64.5489 24.3557C63.5962 23.6525 62.6083 22.9984 61.5889 22.396C60.6278 21.8699 59.5794 21.5222 58.4945 21.3695C57.471 21.213 56.4243 21.3289 55.4598 21.7055C54.3728 22.1826 53.3813 22.8529 52.5334 23.6838C51.6338 24.5199 50.6671 26.0204 50.1482 26.711C49.7728 27.1993 49.4299 27.7118 49.1218 28.2451L46.0647 26.3415L46.9904 34.5757L55.2657 31.9069L52.6305 30.3391L52.9552 29.895Z" stroke="#AC8CED" stroke-width="1.35123" stroke-linecap="round" stroke-linejoin="round"/>
<path fill-rule="evenodd" clip-rule="evenodd" d="M48.9464 16.0505C48.3364 16.5599 47.5925 16.8826 46.8038 16.9799C46.0087 17.0508 45.3107 16.797 44.441 16.2334C43.5713 15.6697 42.5747 14.7888 41.3914 13.9938C40.0767 13.0906 38.5963 12.4563 37.0354 12.1274C35.0666 11.7374 33.0365 11.7794 31.0855 12.2506C29.0417 12.7617 27.1637 13.7901 25.6321 15.2368C24.1264 16.693 22.9845 18.4832 22.2988 20.4625C21.5973 22.4314 21.3921 24.543 21.7016 26.6102C22.0498 28.7413 22.7673 30.7952 23.8218 32.6795C24.5918 34.0666 25.6192 35.2942 26.849 36.2965C27.9195 37.2176 29.1224 37.9725 30.4174 38.5361C31.6279 39.0339 32.8955 39.38 34.1911 39.5663C35.184 39.7007 35.7028 39.626 36.1321 39.4021C36.3524 39.2908 36.5459 39.133 36.6992 38.9397C36.8526 38.7464 36.9622 38.5221 37.0205 38.2823C37.1342 37.7638 37.0489 37.2216 36.7816 36.7631C36.6343 36.5532 36.4432 36.3777 36.2215 36.2489C35.9998 36.12 35.7528 36.0407 35.4975 36.0165C34.6958 35.915 33.8998 35.7729 33.1124 35.591C32.0239 35.2801 30.9947 34.7907 30.0665 34.1427C28.9785 33.3927 28.0561 32.4271 27.3566 31.3059C26.5636 29.9925 26.0006 28.5535 25.6918 27.0507C25.3721 25.6441 25.3442 24.187 25.6097 22.7693C25.8816 21.4932 26.4266 20.2911 27.2073 19.2456C27.9456 18.1939 28.928 17.337 30.0702 16.7485C31.3174 16.1484 32.671 15.8008 34.053 15.7257C35.2142 15.6519 36.378 15.8236 37.4684 16.2296C37.5841 16.2707 37.6998 16.3155 37.8118 16.364H37.8678C38.2672 16.5208 43.1831 19.6786 44.6799 20.3319C46.1767 20.9851 42.6083 17.663 43.8811 17.719C45.0418 17.8017 46.2058 17.6139 47.2816 17.1703H47.3114H47.3413H47.3712H47.401H47.4309H47.4608H47.4906L47.5205 17.1516H47.5503H47.5802H47.6101H47.6362H47.666H47.6959H47.722H47.7519H47.7818L47.8079 17.133H47.8378H47.8639H47.89H47.9161H47.9423H47.9684L47.9945 17.1143H48.0207H48.0468H48.0729L48.0953 17.0956H48.1214L48.1476 17.077H48.1737H48.1998H48.2222H48.2446H48.267L48.2931 17.0583H48.3193L48.3454 17.0396H48.3678H48.3902L48.4163 17.021H48.4387L48.4648 17.0023H48.4872H48.5134H48.5358H48.5582H48.5806H48.603L48.6253 16.9836H48.6477H48.6701L48.6925 16.965H48.7149L48.7597 16.9314H48.7821H48.8008L48.8232 16.9127H48.8456H48.868V16.8941L48.9464 16.0505Z" fill="#F43072"/>
<path d="M48.9464 16.0505C48.3364 16.5599 47.5925 16.8826 46.8038 16.9799C46.0087 17.0508 45.3107 16.797 44.441 16.2334C43.5713 15.6697 42.5747 14.7888 41.3914 13.9938C40.0767 13.0906 38.5963 12.4563 37.0354 12.1274C35.0666 11.7374 33.0365 11.7794 31.0855 12.2506C29.0417 12.7617 27.1637 13.7901 25.6321 15.2368C24.1264 16.693 22.9845 18.4832 22.2988 20.4625C21.5973 22.4314 21.3921 24.543 21.7016 26.6102C22.0498 28.7413 22.7673 30.7952 23.8218 32.6795C24.5918 34.0666 25.6192 35.2942 26.849 36.2965C27.9195 37.2176 29.1224 37.9725 30.4174 38.5361C31.6279 39.0339 32.8955 39.38 34.1911 39.5663C35.184 39.7007 35.7028 39.626 36.1321 39.4021C36.3524 39.2908 36.5459 39.133 36.6992 38.9397C36.8526 38.7464 36.9622 38.5221 37.0205 38.2823C37.1342 37.7638 37.0489 37.2216 36.7816 36.7631C36.6343 36.5532 36.4432 36.3777 36.2215 36.2489C35.9998 36.12 35.7528 36.0407 35.4975 36.0165C34.6958 35.915 33.8998 35.7729 33.1124 35.591C32.0239 35.2801 30.9947 34.7907 30.0665 34.1427C28.9785 33.3927 28.0561 32.4271 27.3566 31.3059C26.5636 29.9925 26.0006 28.5535 25.6918 27.0507C25.3721 25.6441 25.3442 24.187 25.6097 22.7693C25.8816 21.4932 26.4266 20.2911 27.2073 19.2456C27.9456 18.1939 28.928 17.337 30.0702 16.7485C31.3174 16.1484 32.671 15.8008 34.053 15.7257C35.2142 15.6519 36.378 15.8236 37.4684 16.2296C37.5841 16.2707 37.6998 16.3155 37.8118 16.364H37.8678C38.2672 16.5208 43.1831 19.6786 44.6799 20.3318C46.1767 20.9851 42.6083 17.663 43.8811 17.719C45.0418 17.8017 46.2058 17.6139 47.2816 17.1703H47.3114H47.3413H47.3712H47.401H47.4309H47.4608H47.4906L47.5205 17.1516H47.5503H47.5802H47.6101H47.6362H47.6623H47.6922H47.7183H47.7482H47.778L47.8042 17.133H47.834H47.8601H47.8863H47.9124H47.9385H47.9647L47.9908 17.1143H48.0169H48.0431H48.0692L48.0916 17.0956H48.1177L48.1438 17.077H48.17H48.1961H48.2185H48.2409H48.2633L48.2894 17.0583H48.3155L48.3417 17.0396H48.3641H48.3865L48.4126 17.021H48.435L48.4611 17.0023H48.4835H48.5096H48.532H48.5544H48.5768H48.5992L48.6216 16.9836H48.644H48.6664L48.6888 16.965H48.7112L48.756 16.9314H48.7747H48.7933L48.8157 16.9127H48.8381H48.8605V16.8941L48.9464 16.0505Z" stroke="#F43072" stroke-width="1.34003" stroke-linecap="round" stroke-linejoin="round"/>
<path fill-rule="evenodd" clip-rule="evenodd" d="M51.8243 12.2319C51.451 12.7097 49.7638 15.1397 49.2412 15.6212C48.7187 16.1027 48.9538 15.8713 48.812 15.9945C48.313 16.4466 47.751 16.8238 47.1435 17.1143C46.0695 17.5654 44.9054 17.7609 43.743 17.6854C42.4812 17.621 41.2299 17.422 40.0104 17.0919C39.2358 16.8893 38.4742 16.64 37.7297 16.3453L37.6737 16.3229C38.5731 16.7173 39.4299 17.2025 40.2306 17.7712C41.1791 18.4736 42.1634 19.1265 43.1794 19.7271C44.1448 20.2497 45.197 20.5924 46.285 20.7387C47.3097 20.895 48.3575 20.7791 49.3234 20.4027C50.4099 19.9247 51.4013 19.2545 52.2498 18.4244C53.1456 17.5883 54.1161 16.0878 54.635 15.401C55.0074 14.9105 55.3502 14.3982 55.6614 13.8668L58.7185 15.7705L57.7816 7.53622L49.5025 10.2014L52.1602 11.784L51.8243 12.2319Z" fill="#FF7B62"/>
<path d="M51.8243 12.2319C51.451 12.7097 49.7638 15.1397 49.2412 15.6212C48.7187 16.1027 48.9538 15.8713 48.812 15.9945C48.313 16.4466 47.751 16.8238 47.1435 17.1143C46.0695 17.5654 44.9054 17.7609 43.743 17.6854C42.4812 17.621 41.2299 17.422 40.0104 17.0919C39.2358 16.8893 38.4742 16.64 37.7297 16.3453L37.6737 16.3229C38.5731 16.7173 39.4299 17.2025 40.2306 17.7712C41.1791 18.4736 42.1634 19.1265 43.1794 19.7271C44.1448 20.2497 45.197 20.5924 46.285 20.7387C47.3097 20.895 48.3575 20.7791 49.3234 20.4027C50.4099 19.9247 51.4013 19.2545 52.2498 18.4244C53.1456 17.5883 54.1161 16.0878 54.635 15.401C55.0074 14.9105 55.3502 14.3982 55.6614 13.8668L58.7185 15.7705L57.7816 7.53622L49.5025 10.2014L52.1602 11.784L51.8243 12.2319Z" stroke="#FF7B62" stroke-width="1.34749" stroke-linecap="round" stroke-linejoin="round"/>
</g>
<defs>
<clipPath id="clip0">
<rect width="105" height="63.8884" fill="white"/>
</clipPath>
</defs>
</svg>
