<svg width="96" height="65" viewBox="0 0 96 65" fill="none" xmlns="http://www.w3.org/2000/svg">
<path fill-rule="evenodd" clip-rule="evenodd" d="M42.9737 24.9874C42.0609 25.7482 40.949 26.2311 39.77 26.3788C38.4856 26.4524 37.2184 26.0554 36.2056 25.2623C34.9258 24.4034 33.4313 23.0978 31.6448 21.9211C29.6772 20.5715 27.4614 19.6256 25.1258 19.1383C22.1782 18.5557 19.1392 18.6202 16.219 19.3273C13.1652 20.088 10.3565 21.6165 8.05943 23.7678C5.80739 25.9519 4.10086 28.6352 3.07782 31.6009C2.04142 34.5504 1.74645 37.7094 2.21892 40.7997C2.74392 43.9873 3.81925 47.0592 5.39685 49.8783C6.54748 51.9586 8.08704 53.7985 9.93183 55.298C11.5314 56.6738 13.3296 57.8002 15.2656 58.6391C17.0776 59.3793 18.9723 59.8984 20.9086 60.1851C21.8807 60.4168 22.9016 60.3294 23.8202 59.936C24.1471 59.7735 24.4347 59.5419 24.6631 59.2571C24.8915 58.9723 25.0553 58.6413 25.1429 58.2869C25.3109 57.5108 25.1855 56.6999 24.7908 56.0108C24.5679 55.6994 24.2808 55.4394 23.949 55.2482C23.6171 55.0571 23.2481 54.9394 22.8669 54.9029C21.9478 54.7139 20.7196 54.6538 19.3024 54.2673C17.6703 53.7988 16.1265 53.0646 14.7331 52.0943C13.1039 50.9743 11.7238 49.5298 10.6791 47.8513C9.49438 45.8853 8.64942 43.7337 8.17968 41.4869C7.7084 39.3839 7.6675 37.2073 8.05943 35.0881C8.46928 33.1813 9.2803 31.3836 10.4386 29.8144C11.5461 28.2394 13.0199 26.9572 14.7331 26.0782C16.6 25.1813 18.6257 24.6617 20.6938 24.5494C22.4449 24.4369 24.2002 24.6914 25.8472 25.2966L26.354 25.5028H26.4399C27.0325 25.7347 34.3933 30.4586 36.635 31.4377C38.8767 32.4169 33.5344 27.4439 35.4325 27.504C37.1737 27.6112 38.9162 27.3174 40.5258 26.6451H40.5688H40.6203H40.6632H40.7148H40.7577H40.8007H40.8436H40.8866H40.9295H40.9725H41.0154L41.0841 26.585L42.9737 24.9874Z" fill="#A43E88"/>
<path d="M42.9737 24.9874C42.0609 25.7482 40.949 26.2311 39.77 26.3788C38.4856 26.4524 37.2184 26.0554 36.2056 25.2623C34.9258 24.4034 33.4313 23.0978 31.6448 21.9211C29.6772 20.5715 27.4614 19.6256 25.1258 19.1383C22.1782 18.5557 19.1392 18.6202 16.219 19.3273C13.167 20.0861 10.3606 21.615 8.06802 23.7678C5.81059 25.9491 4.10071 28.6331 3.07782 31.6009C2.04142 34.5504 1.74645 37.7094 2.21892 40.7997C2.74392 43.9873 3.81925 47.0592 5.39685 49.8783C6.54748 51.9586 8.08704 53.7985 9.93183 55.298C11.5314 56.6738 13.3296 57.8002 15.2656 58.6391C17.0776 59.3793 18.9723 59.8984 20.9086 60.1851C21.8807 60.4168 22.9016 60.3294 23.8202 59.936C24.1471 59.7735 24.4347 59.5419 24.6631 59.2571C24.8915 58.9723 25.0553 58.6413 25.1429 58.2869C25.3109 57.5108 25.1855 56.6999 24.7908 56.0108C24.5679 55.6994 24.2808 55.4394 23.949 55.2482C23.6171 55.0571 23.2481 54.9393 22.8669 54.9029C21.9478 54.7139 20.7196 54.6538 19.3024 54.2673C17.6703 53.7988 16.1265 53.0646 14.7331 52.0943C13.1039 50.9743 11.7238 49.5298 10.6791 47.8513C9.49438 45.8853 8.64942 43.7337 8.17968 41.4869C7.7084 39.3839 7.6675 37.2073 8.05943 35.0881C8.46928 33.1813 9.2803 31.3836 10.4386 29.8144C11.5461 28.2394 13.0199 26.9572 14.7331 26.0782C16.6 25.1813 18.6257 24.6617 20.6938 24.5494C22.4449 24.4369 24.2002 24.6914 25.8472 25.2966L26.354 25.5028H26.4399C27.0325 25.7432 34.3933 30.4672 36.635 31.4463C38.8767 32.4255 33.5344 27.4525 35.4325 27.5126C37.1737 27.6198 38.9162 27.326 40.5258 26.6537H40.5688H40.6203H40.6632H40.7148H40.7577H40.8007H40.8436H40.8866H40.9295H40.9724H41.0154L41.0841 26.5936L42.9737 24.9874Z" stroke="#A43E88" stroke-width="2.00982" stroke-linecap="round" stroke-linejoin="round"/>
<path fill-rule="evenodd" clip-rule="evenodd" d="M60.8129 9.44095C60.0885 9.25608 59.4352 8.86048 58.9356 8.30421C58.4361 7.74795 58.1128 7.056 58.0066 6.31594C57.9004 5.57587 58.0161 4.82093 58.3391 4.14664C58.662 3.47235 59.1777 2.909 59.821 2.52788C60.4642 2.14676 61.206 1.96499 61.9525 2.00557C62.6991 2.04615 63.4168 2.30725 64.0149 2.75585C64.613 3.20444 65.0647 3.82036 65.3126 4.52569C65.5606 5.23101 65.5938 5.99405 65.408 6.71824C65.1572 7.68707 64.5331 8.51723 63.6721 9.02739C62.8111 9.53755 61.7832 9.68623 60.8129 9.44095Z" fill="#F43072"/>
<path d="M60.8129 9.44095C60.0885 9.25608 59.4352 8.86048 58.9356 8.30421C58.4361 7.74795 58.1128 7.056 58.0066 6.31594C57.9004 5.57587 58.0161 4.82093 58.3391 4.14664C58.662 3.47235 59.1777 2.909 59.821 2.52788C60.4642 2.14676 61.206 1.96499 61.9525 2.00557C62.6991 2.04615 63.4168 2.30725 64.0149 2.75585C64.613 3.20444 65.0647 3.82036 65.3126 4.52569C65.5606 5.23101 65.5938 5.99405 65.408 6.71824C65.1572 7.68707 64.5331 8.51723 63.6721 9.02739C62.8111 9.53755 61.7832 9.68623 60.8129 9.44095V9.44095Z" stroke="#F43072" stroke-width="2.00982" stroke-linecap="round" stroke-linejoin="round"/>
<path fill-rule="evenodd" clip-rule="evenodd" d="M53.2803 40.0351C54.1902 39.2697 55.3035 38.7862 56.484 38.6437C57.7596 38.5765 59.0166 38.9731 60.0226 39.7603C61.3024 40.602 62.8312 41.9161 64.549 43.0756C66.5166 44.4253 68.7324 45.3712 71.0681 45.8585C74.0253 46.4502 77.0756 46.3945 80.0092 45.6953C83.0632 44.9369 85.8704 43.4046 88.1602 41.2462C90.4193 39.0696 92.1295 36.3879 93.1504 33.4216C94.191 30.4731 94.486 27.313 94.0093 24.2228C93.4898 21.0324 92.4172 17.9571 90.8399 15.1357C89.6842 13.0613 88.1453 11.2251 86.3049 9.72459C84.7053 8.34874 82.9072 7.22233 80.9712 6.38347C79.1562 5.64316 77.2587 5.12409 75.3196 4.83745C74.3503 4.60585 73.3322 4.6932 72.4165 5.08653C72.089 5.24807 71.8008 5.47944 71.5723 5.76435C71.3437 6.04926 71.1804 6.38079 71.0938 6.73562C70.9204 7.50879 71.0463 8.31895 71.446 9.00311C71.6672 9.31694 71.9537 9.57921 72.2858 9.77194C72.6179 9.96467 72.9877 10.0833 73.3699 10.1197C74.2889 10.3086 75.5172 10.3602 76.9344 10.7553C78.5635 11.2246 80.1043 11.9588 81.4951 12.9283C83.1243 14.0483 84.5044 15.4928 85.5491 17.1712C86.7376 19.1345 87.5801 21.2873 88.0399 23.5357C88.5196 25.6377 88.5606 27.816 88.1602 29.9345C87.7515 31.8432 86.9372 33.6418 85.7724 35.2081C84.6662 36.7843 83.1921 38.0668 81.4779 38.9443C79.6287 39.8437 77.6211 40.3718 75.5687 40.4989C73.8168 40.6136 72.0605 40.356 70.4153 39.7431L69.9 39.5456H69.8227C69.2214 39.3137 61.8693 34.5897 59.6275 33.6106C57.3858 32.6314 62.7282 37.6045 60.8214 37.5443C59.0829 37.4338 57.3424 37.7278 55.7367 38.4032H55.6852H55.6422H55.5907H55.5478H55.5048H55.4619H55.4189H55.376H55.333H55.2901H55.2471L55.1784 38.4548L53.2803 40.0351Z" fill="#F26588"/>
<path d="M53.2803 40.0351C54.1902 39.2697 55.3035 38.7862 56.484 38.6437C57.7596 38.5765 59.0166 38.9731 60.0226 39.7603C61.3024 40.602 62.8312 41.9161 64.549 43.0756C66.5166 44.4253 68.7324 45.3712 71.0681 45.8585C74.0253 46.4502 77.0756 46.3945 80.0092 45.6953C83.0632 44.9369 85.8704 43.4046 88.1602 41.2462C90.4193 39.0696 92.1295 36.3879 93.1504 33.4216C94.191 30.4731 94.486 27.313 94.0093 24.2228C93.4898 21.0324 92.4172 17.9571 90.8399 15.1357C89.6842 13.0613 88.1453 11.2251 86.3049 9.72459C84.7053 8.34874 82.9072 7.22233 80.9712 6.38347C79.1562 5.64316 77.2587 5.12409 75.3196 4.83745C74.3503 4.60585 73.3322 4.6932 72.4165 5.08653C72.089 5.24807 71.8008 5.47944 71.5723 5.76435C71.3437 6.04926 71.1804 6.38079 71.0938 6.73562C70.9204 7.50879 71.0463 8.31895 71.446 9.00311C71.6672 9.31694 71.9537 9.57921 72.2858 9.77194C72.6179 9.96467 72.9877 10.0833 73.3699 10.1197C74.2889 10.3086 75.5172 10.3602 76.9344 10.7553C78.5635 11.2246 80.1043 11.9588 81.4951 12.9283C83.1243 14.0483 84.5044 15.4928 85.5491 17.1712C86.7376 19.1345 87.5801 21.2873 88.0399 23.5357C88.5196 25.6377 88.5606 27.816 88.1602 29.9345C87.7515 31.8432 86.9372 33.6418 85.7724 35.2081C84.6662 36.7843 83.1921 38.0668 81.4779 38.9443C79.6287 39.8437 77.6211 40.3718 75.5687 40.4989C73.8168 40.6136 72.0605 40.356 70.4153 39.7431L69.9 39.5456H69.8227C69.2214 39.3137 61.8693 34.5897 59.6275 33.6106C57.3858 32.6314 62.7282 37.6045 60.8214 37.5443C59.0829 37.4338 57.3424 37.7278 55.7367 38.4032H55.6852H55.6422H55.5907H55.5478H55.5048H55.4619H55.4189H55.376H55.333H55.2901H55.2471L55.1784 38.4548L53.2803 40.0351Z" stroke="#F26588" stroke-width="2.00982" stroke-linecap="round" stroke-linejoin="round"/>
<path fill-rule="evenodd" clip-rule="evenodd" d="M35.4323 55.5725C36.156 55.7594 36.8081 56.1566 37.3061 56.7141C37.804 57.2715 38.1255 57.9641 38.2298 58.7042C38.3341 59.4444 38.2166 60.1989 37.8922 60.8722C37.5677 61.5456 37.0508 62.1076 36.4069 62.4872C35.763 62.8668 35.021 63.047 34.2748 63.0049C33.5285 62.9628 32.8115 62.7003 32.2143 62.2507C31.6172 61.801 31.1669 61.1845 30.9202 60.4789C30.6735 59.7733 30.6417 59.0104 30.8286 58.2867C30.9517 57.8056 31.1685 57.3536 31.4668 56.9565C31.765 56.5595 32.1388 56.2253 32.5665 55.9731C32.9943 55.721 33.4677 55.5557 33.9594 55.487C34.4512 55.4182 34.9518 55.4473 35.4323 55.5725Z" fill="#AC8CED"/>
<path d="M35.4323 55.5725C36.156 55.7594 36.8081 56.1566 37.3061 56.7141C37.804 57.2715 38.1255 57.9641 38.2298 58.7042C38.3341 59.4444 38.2166 60.1989 37.8922 60.8722C37.5677 61.5456 37.0508 62.1076 36.4069 62.4872C35.763 62.8668 35.021 63.047 34.2748 63.0049C33.5285 62.9628 32.8115 62.7003 32.2143 62.2507C31.6172 61.801 31.1669 61.1845 30.9202 60.4789C30.6735 59.7733 30.6417 59.0104 30.8286 58.2867C30.9517 57.8056 31.1685 57.3536 31.4668 56.9565C31.765 56.5595 32.1388 56.2253 32.5665 55.9731C32.9943 55.721 33.4677 55.5557 33.9594 55.487C34.4512 55.4182 34.9518 55.4473 35.4323 55.5725V55.5725Z" stroke="#AC8CED" stroke-width="2.00982" stroke-linecap="round" stroke-linejoin="round"/>
<path fill-rule="evenodd" clip-rule="evenodd" d="M53.2717 40.0349C54.1869 39.2727 55.302 38.7897 56.484 38.6435C57.7583 38.587 59.0116 38.9824 60.0227 39.7601C61.3024 40.619 62.7969 41.9245 64.5834 43.1098C66.5516 44.4508 68.7634 45.3933 71.0939 45.884C74.0443 46.4679 77.0863 46.4034 80.0093 45.6951C83.0653 44.9401 85.8754 43.4109 88.1688 41.2546C90.4262 39.0732 92.1361 36.3892 93.159 33.4214C94.1961 30.4721 94.4911 27.3129 94.0179 24.2226C93.4997 21.0346 92.427 17.9619 90.8486 15.144C89.6902 13.0691 88.1517 11.2306 86.3136 9.72438C84.712 8.34923 82.9106 7.22555 80.9712 6.39185C79.1623 5.64268 77.2665 5.12329 75.3283 4.84583C74.3602 4.60777 73.3409 4.69221 72.4252 5.08632C72.099 5.25109 71.8117 5.48334 71.5821 5.76765C71.3526 6.05197 71.1862 6.38186 71.0939 6.73541C70.9285 7.51261 71.057 8.32353 71.4546 9.01149C71.6775 9.32373 71.9643 9.58483 72.2961 9.77738C72.6279 9.96992 72.9969 10.0895 73.3786 10.1281C74.5768 10.2788 75.7665 10.4909 76.943 10.7636C78.5704 11.2263 80.109 11.9579 81.4952 12.9281C83.1335 14.0612 84.5172 15.5239 85.5577 17.2226C86.7411 19.1853 87.5833 21.3343 88.0486 23.5784C88.5241 25.6809 88.565 27.8584 88.1688 29.9772C87.762 31.8865 86.9475 33.6855 85.7811 35.2509C84.6733 36.8279 83.1997 38.1129 81.4866 38.9957C79.6285 39.8796 77.6149 40.3902 75.5602 40.4987C73.8231 40.6105 72.082 40.3559 70.4497 39.7515L69.9344 39.5539H69.8571C69.2558 39.322 61.9037 34.5981 59.6534 33.619C57.403 32.6398 62.754 37.6128 60.8558 37.5441C59.1145 37.4335 57.3712 37.7274 55.7625 38.403H55.7196H55.6766H55.6251H55.5822H55.5392H55.4963H55.4533H55.4104H55.3674H55.3245H55.2816H55.2386H55.1957H55.1527L55.084 38.4631L53.2717 40.0349Z" fill="#A4448B"/>
<path d="M53.2717 40.0349C54.1869 39.2727 55.302 38.7897 56.484 38.6435C57.7583 38.587 59.0116 38.9824 60.0227 39.7601C61.3024 40.619 62.7969 41.9245 64.5834 43.1098C66.5516 44.4508 68.7634 45.3933 71.0939 45.884C74.0443 46.4679 77.0863 46.4034 80.0093 45.6951C83.066 44.942 85.8765 43.4124 88.1688 41.2546C90.4262 39.0732 92.1361 36.3892 93.159 33.4214C94.1961 30.4721 94.4911 27.3129 94.0179 24.2226C93.4997 21.0346 92.427 17.9619 90.8486 15.144C89.6902 13.0691 88.1517 11.2306 86.3136 9.72438C84.712 8.34923 82.9106 7.22555 80.9712 6.39185C79.1623 5.64268 77.2665 5.12329 75.3283 4.84583C74.3602 4.60777 73.3409 4.69221 72.4252 5.08632C72.099 5.25109 71.8117 5.48334 71.5821 5.76765C71.3526 6.05197 71.1862 6.38186 71.0939 6.73541C70.9285 7.51261 71.057 8.32353 71.4546 9.01149C71.6775 9.32373 71.9643 9.58483 72.2961 9.77738C72.6279 9.96992 72.9969 10.0895 73.3786 10.1281C74.5768 10.2788 75.7665 10.4909 76.943 10.7636C78.5704 11.2263 80.109 11.9579 81.4952 12.9281C83.1335 14.0612 84.5172 15.5239 85.5577 17.2226C86.7411 19.1853 87.5833 21.3343 88.0486 23.5784C88.5241 25.6809 88.565 27.8584 88.1688 29.9772C87.762 31.8865 86.9475 33.6855 85.7811 35.2509C84.6733 36.8279 83.1997 38.1129 81.4866 38.9957C79.6284 39.8796 77.6149 40.3902 75.5602 40.4987C73.8231 40.6105 72.082 40.3559 70.4497 39.7515L69.9344 39.5539H69.8571C69.2558 39.322 61.9037 34.5981 59.6534 33.619C57.403 32.6398 62.754 37.6128 60.8558 37.5441C59.1145 37.4335 57.3712 37.7274 55.7625 38.403H55.7196H55.6766H55.6251H55.5822H55.5392H55.4963H55.4533H55.4104H55.3674H55.3245H55.2816H55.2386H55.1957H55.1527L55.084 38.4631L53.2717 40.0349Z" stroke="#A4448B" stroke-width="2.00982" stroke-linecap="round" stroke-linejoin="round"/>
<path fill-rule="evenodd" clip-rule="evenodd" d="M48.968 45.7293C49.5091 45.0164 52.0515 41.3747 52.8331 40.6618C53.6147 39.9489 53.2625 40.2753 53.4773 40.1121C54.2207 39.4228 55.0596 38.8442 55.9681 38.3943C57.578 37.7229 59.3203 37.4291 61.0613 37.5354C62.9473 37.6243 64.8187 37.9122 66.6442 38.3943C67.8103 38.702 68.9575 39.0777 70.0798 39.5194H70.1657C68.8169 38.9333 67.533 38.2079 66.335 37.355C64.9172 36.3068 63.4466 35.3321 61.9288 34.4348C60.4919 33.6453 58.9231 33.1243 57.2994 32.8973C55.7674 32.6601 54.1999 32.8319 52.7558 33.3955C51.1289 34.111 49.6449 35.1149 48.3754 36.3587C47.0581 37.8023 45.8603 39.3505 44.7938 40.9882C44.2388 41.7232 43.7255 42.4888 43.2564 43.2814L38.687 40.4299L40.0698 52.7551L52.438 48.7612L48.4699 46.3906L48.968 45.7293Z" fill="#AC8CED"/>
<path d="M48.968 45.7293C49.5091 45.0164 52.0515 41.3747 52.8331 40.6618C53.6147 39.9489 53.2625 40.2753 53.4773 40.1121C54.2207 39.4228 55.0596 38.8442 55.9681 38.3943C57.578 37.7229 59.3203 37.4291 61.0613 37.5354C62.9473 37.6243 64.8187 37.9122 66.6442 38.3943C67.8103 38.702 68.9575 39.0777 70.0798 39.5194H70.1657C68.8169 38.9333 67.533 38.2079 66.335 37.355C64.9172 36.3068 63.4466 35.3321 61.9288 34.4348C60.4919 33.6453 58.9231 33.1243 57.2994 32.8973C55.7674 32.6601 54.1999 32.8319 52.7558 33.3955C51.1289 34.111 49.6449 35.1149 48.3754 36.3587C47.0581 37.8023 45.8603 39.3505 44.7938 40.9882C44.2388 41.7232 43.7255 42.4888 43.2564 43.2814L38.687 40.4299L40.0698 52.7551L52.438 48.7612L48.4699 46.3906L48.968 45.7293Z" stroke="#AC8CED" stroke-width="2.01841" stroke-linecap="round" stroke-linejoin="round"/>
<path fill-rule="evenodd" clip-rule="evenodd" d="M42.9739 25.0385C42.0567 25.7974 40.9426 26.28 39.7616 26.4299C38.4741 26.4828 37.211 26.0679 36.2058 25.2618C34.926 24.4029 33.4315 23.1059 31.645 21.9207C29.6768 20.574 27.461 19.6311 25.126 19.1464C22.179 18.5607 19.14 18.6223 16.2192 19.3268C13.1634 20.0871 10.3539 21.619 8.05965 23.7759C5.80304 25.9563 4.09578 28.6408 3.07803 31.609C2.04131 34.5554 1.74632 37.7118 2.21913 40.7993C2.73767 43.9912 3.81336 47.067 5.39706 49.8864C6.54989 51.9603 8.08587 53.7964 9.92346 55.2975C11.5275 56.6716 13.3282 57.7978 15.2658 58.6386C17.0748 59.3878 18.9706 59.9072 20.9088 60.1846C21.8776 60.4219 22.8976 60.3344 23.8119 59.9355C24.1371 59.7717 24.4239 59.5408 24.6534 59.258C24.8828 58.9752 25.0498 58.647 25.1432 58.295C25.3145 57.518 25.1856 56.7049 24.7824 56.019C24.5625 55.7058 24.2775 55.4438 23.9469 55.2511C23.6163 55.0584 23.2479 54.9394 22.8671 54.9024C21.948 54.7134 20.7198 54.6619 19.294 54.2668C17.6655 53.8001 16.1247 53.0689 14.7333 52.1024C13.1013 50.9795 11.7183 49.5322 10.6707 47.8508C9.48589 45.8858 8.64363 43.7336 8.17989 41.4864C7.70861 39.3834 7.66771 37.2068 8.05965 35.0876C8.46063 33.1805 9.27253 31.3838 10.4388 29.8225C11.5458 28.2448 13.0196 26.9597 14.7333 26.0777C16.6008 25.1835 18.6264 24.6669 20.6941 24.5575C22.4311 24.4449 24.1724 24.6995 25.8045 25.3047L26.3198 25.5023H26.4057C26.9984 25.7342 34.3591 30.4581 36.6009 31.4373C38.8426 32.4164 33.5002 27.4434 35.3984 27.5035C37.1397 27.6151 38.8832 27.3211 40.4917 26.6446H40.5346H40.5862H40.6291H40.672H40.715H40.7579H40.8009H40.8438H40.8868H40.9297H40.9727H41.0156H41.0586L41.1187 26.5931L42.9739 25.0385Z" fill="#F43072"/>
<path d="M42.9739 25.0385C42.0567 25.7974 40.9426 26.28 39.7616 26.4299C38.4741 26.4828 37.211 26.0679 36.2058 25.2618C34.926 24.4029 33.4315 23.1059 31.645 21.9207C29.6768 20.574 27.461 19.6311 25.126 19.1464C22.179 18.5607 19.14 18.6223 16.2192 19.3268C13.1634 20.0871 10.3539 21.619 8.05965 23.7759C5.80304 25.9563 4.09578 28.6408 3.07803 31.609C2.04131 34.5554 1.74632 37.7118 2.21913 40.7993C2.73767 43.9912 3.81336 47.067 5.39706 49.8864C6.54989 51.9603 8.08587 53.7964 9.92346 55.2975C11.5275 56.6716 13.3282 57.7978 15.2658 58.6386C17.0748 59.3878 18.9706 59.9072 20.9088 60.1846C21.8776 60.4219 22.8976 60.3344 23.8119 59.9355C24.1371 59.7717 24.4239 59.5408 24.6534 59.258C24.8828 58.9752 25.0498 58.647 25.1432 58.295C25.3145 57.518 25.1856 56.7049 24.7824 56.019C24.5625 55.7058 24.2775 55.4438 23.9469 55.2511C23.6163 55.0584 23.2479 54.9394 22.8671 54.9024C21.948 54.7134 20.7198 54.6619 19.294 54.2668C17.6655 53.8001 16.1247 53.0689 14.7333 52.1024C13.1013 50.9795 11.7183 49.5322 10.6707 47.8508C9.48589 45.8858 8.64363 43.7336 8.17989 41.4864C7.70861 39.3834 7.66771 37.2068 8.05965 35.0876C8.46063 33.1805 9.27253 31.3838 10.4388 29.8225C11.5458 28.2448 13.0196 26.9597 14.7333 26.0777C16.6008 25.1835 18.6264 24.6669 20.6941 24.5575C22.4311 24.4449 24.1724 24.6995 25.8045 25.3047L26.3198 25.5023H26.4057C26.9984 25.7342 34.3591 30.4581 36.6009 31.4373C38.8426 32.4164 33.5002 27.4434 35.3984 27.5035C37.1397 27.6151 38.8832 27.3211 40.4917 26.6446H40.5346H40.5862H40.6291H40.672H40.715H40.7579H40.8009H40.8438H40.8868H40.9297H40.9727H41.0156H41.0586H41.1015L41.1616 26.5931L42.9739 25.0385Z" stroke="#F43072" stroke-width="2.00982" stroke-linecap="round" stroke-linejoin="round"/>
<path fill-rule="evenodd" clip-rule="evenodd" d="M47.2766 19.3012C46.7441 20.0141 44.2018 23.6558 43.4116 24.3687C42.6214 25.0816 42.9821 24.7466 42.7674 24.9184C42.0256 25.6097 41.1864 26.1885 40.2766 26.6362C38.6681 27.3124 36.9247 27.6064 35.1833 27.4951C33.2997 27.411 31.4307 27.123 29.6091 26.6362C28.4414 26.3301 27.294 25.9515 26.1735 25.5024H26.0962C27.4422 26.0887 28.7232 26.8141 29.9183 27.6669C31.3368 28.7209 32.8105 29.6985 34.333 30.5957C35.7669 31.3851 37.3329 31.9061 38.9539 32.1331C40.4887 32.3703 42.0589 32.1985 43.5061 31.635C45.1302 30.9192 46.6114 29.9153 47.8779 28.6718C49.1904 27.263 50.3854 25.7492 51.4509 24.1454C52.0089 23.4125 52.5223 22.6467 52.9883 21.8521L57.5577 24.6951L56.192 12.2754L43.8067 16.2607L47.7834 18.6312L47.2766 19.3012Z" fill="#FF7B62"/>
<path d="M47.2766 19.3012C46.7441 20.0141 44.2018 23.6558 43.4116 24.3687C42.6214 25.0816 42.9821 24.7466 42.7674 24.9184C42.0256 25.6097 41.1864 26.1885 40.2766 26.6362C38.6681 27.3124 36.9247 27.6064 35.1833 27.4951C33.2997 27.411 31.4307 27.123 29.6091 26.6362C28.4414 26.3301 27.294 25.9515 26.1735 25.5024H26.0962C27.4422 26.0887 28.7232 26.8141 29.9183 27.6669C31.3368 28.7209 32.8105 29.6985 34.333 30.5957C35.7669 31.3851 37.3329 31.9061 38.9539 32.1331C40.4887 32.3703 42.0589 32.1985 43.5061 31.635C45.1302 30.9192 46.6114 29.9153 47.8779 28.6718C49.1904 27.263 50.3854 25.7492 51.4509 24.1454C52.0089 23.4125 52.5223 22.6467 52.9883 21.8521L57.5577 24.6951L56.192 12.2754L43.8067 16.2607L47.7834 18.6312L47.2766 19.3012Z" stroke="#FF7B62" stroke-width="2.01841" stroke-linecap="round" stroke-linejoin="round"/>
</svg>
