<svg width="191" height="33" viewBox="0 0 191 33" fill="none" xmlns="http://www.w3.org/2000/svg">
<g clip-path="url(#clip0)">
<path d="M185.125 21.6628C185.642 21.6916 186.16 21.6246 186.653 21.465C186.799 21.4027 186.921 21.2954 187.002 21.1588C187.083 21.0221 187.118 20.8633 187.103 20.7053C187.085 20.5358 187.022 20.3743 186.92 20.238C186.818 20.1017 186.681 19.996 186.523 19.9321C185.956 19.6346 185.365 19.3849 184.756 19.1859C184.14 18.9746 183.583 18.7364 183.084 18.5251C182.618 18.3192 182.187 18.0417 181.807 17.7025C181.455 17.3852 181.176 16.9957 180.989 16.5607C180.782 16.0547 180.683 15.5113 180.697 14.9648C180.68 14.4036 180.805 13.8473 181.058 13.3464C181.312 12.8455 181.687 12.4159 182.149 12.0969C183.111 11.3956 184.435 11.045 186.123 11.045C186.936 11.0415 187.749 11.1107 188.55 11.2517C189.175 11.3541 189.791 11.5044 190.393 11.7013L189.701 14.5513C189.251 14.4029 188.748 14.2726 188.213 14.1557C187.621 14.0372 187.018 13.98 186.415 13.9849C185.183 13.9849 184.572 14.304 184.572 14.9424C184.57 15.0766 184.596 15.2099 184.648 15.3335C184.724 15.4702 184.834 15.5848 184.967 15.6661C185.171 15.798 185.386 15.9123 185.61 16.0077C185.951 16.1616 186.299 16.2981 186.653 16.4168C187.383 16.6671 188.095 16.9675 188.784 17.3159C189.282 17.5493 189.737 17.8637 190.132 18.2464C190.433 18.5538 190.661 18.9237 190.802 19.3298C190.941 19.7903 191.007 20.2694 191 20.7503C191.025 21.326 190.895 21.8979 190.624 22.4063C190.353 22.9148 189.95 23.3411 189.458 23.6407C188.429 24.2881 186.977 24.6162 185.098 24.6162C184.066 24.6365 183.036 24.5369 182.027 24.3195C181.45 24.1934 180.883 24.0282 180.328 23.825L180.989 20.8582C181.657 21.1043 182.344 21.2967 183.043 21.4336C183.728 21.5721 184.426 21.6429 185.125 21.6448V21.6628ZM169.593 16.8798C169.243 18.1205 168.87 19.3552 168.474 20.5839C168.078 21.8112 167.674 23.0429 167.224 24.2746H164.168C163.853 23.5853 163.508 22.7672 163.134 21.8201C162.759 20.8731 162.378 19.8392 161.992 18.7184C161.593 17.6006 161.187 16.4153 160.774 15.1626C160.36 13.9129 159.955 12.6498 159.569 11.3731H163.705C163.848 11.962 164.001 12.6048 164.154 13.2971C164.307 13.9894 164.496 14.7086 164.68 15.4458C164.864 16.1831 165.062 16.9203 165.264 17.662C165.467 18.4037 165.678 19.123 165.889 19.8108C166.119 19.0915 166.339 18.3543 166.559 17.6036C166.779 16.8529 167.009 16.1111 167.193 15.3829C167.377 14.6547 167.588 13.9534 167.773 13.2746C167.957 12.5958 168.119 11.962 168.258 11.3731H171.104C171.242 11.9725 171.399 12.6063 171.576 13.2746C171.751 13.9534 171.94 14.6547 172.129 15.3829C172.318 16.1111 172.524 16.8484 172.736 17.6036C172.947 18.3588 173.185 19.0915 173.396 19.8108C173.609 19.1215 173.82 18.4052 174.03 17.662C174.242 16.9203 174.439 16.1786 174.628 15.4458C174.817 14.7131 174.988 13.9939 175.154 13.2971C175.32 12.6003 175.482 11.9485 175.604 11.3731H179.685C179.299 12.6498 178.894 13.9129 178.481 15.1626C178.067 16.4123 177.667 17.5991 177.267 18.7184C176.867 19.8377 176.485 20.8716 176.107 21.8201C175.729 22.7687 175.379 23.5868 175.064 24.2746H172.007C171.558 23.0294 171.14 21.7977 170.717 20.5705C170.295 19.3432 169.944 18.1205 169.593 16.8798ZM155.087 17.8104C155.139 16.8684 154.886 15.9348 154.363 15.1491C154.124 14.8315 153.81 14.5773 153.45 14.4088C153.089 14.2403 152.693 14.1627 152.296 14.1827C151.896 14.1632 151.498 14.2409 151.136 14.4093C150.773 14.5776 150.457 14.8315 150.214 15.1491C149.681 15.9305 149.422 16.8662 149.477 17.8104C149.423 18.7656 149.682 19.7124 150.214 20.5075C150.453 20.8315 150.767 21.0917 151.13 21.265C151.493 21.4383 151.894 21.5194 152.296 21.501C152.696 21.5199 153.094 21.439 153.455 21.2656C153.816 21.0922 154.128 20.8316 154.363 20.5075C154.885 19.7081 155.138 18.7634 155.087 17.8104ZM159.092 17.8104C159.102 18.759 158.941 19.7017 158.616 20.5929C158.321 21.4047 157.853 22.1425 157.245 22.7552C156.629 23.3612 155.894 23.8326 155.087 24.1397C154.191 24.4773 153.24 24.6436 152.282 24.6297C151.333 24.6433 150.391 24.477 149.504 24.1397C148.7 23.8311 147.968 23.3597 147.355 22.7552C146.746 22.138 146.27 21.402 145.957 20.5929C145.616 19.7055 145.446 18.7611 145.458 17.8104C145.446 16.8627 145.62 15.9218 145.971 15.0413C146.293 14.2388 146.778 13.5118 147.396 12.906C148.015 12.3083 148.749 11.8419 149.553 11.5349C151.322 10.8818 153.265 10.8818 155.033 11.5349C155.839 11.8343 156.571 12.3018 157.182 12.9064C157.793 13.511 158.268 14.2388 158.575 15.0413C158.925 15.9224 159.102 16.8625 159.097 17.8104H159.092ZM131.262 11.8271C132.114 11.6118 132.977 11.4437 133.847 11.3237C134.946 11.1675 136.055 11.0909 137.164 11.0944C138.16 11.0653 139.154 11.2098 140.1 11.5215C140.812 11.7621 141.45 12.1798 141.956 12.7352C142.428 13.2711 142.769 13.9099 142.95 14.6007C143.152 15.3846 143.25 16.1917 143.242 17.0012V24.2746H139.309V17.4462C139.309 16.2685 139.142 15.4339 138.81 14.9424C138.477 14.4524 137.852 14.2051 136.94 14.2051C136.661 14.2051 136.36 14.2051 136.041 14.2456C135.721 14.2861 135.443 14.295 135.195 14.331V24.2746H131.262V11.8271ZM124.942 24.2746C124.569 23.7217 124.137 23.1193 123.634 22.4765C123.13 21.8336 122.591 21.1908 122.011 20.539C121.431 19.8872 120.824 19.2578 120.19 18.66C119.591 18.0936 118.956 17.5665 118.289 17.0821V24.2746H114.18V7.2914H118.289V13.6792C119.347 12.6453 120.419 11.5649 121.507 10.4381C122.595 9.31128 123.602 8.26238 124.528 7.2914H129.406C128.162 8.66695 126.912 9.99156 125.657 11.2652C124.401 12.5389 123.078 13.817 121.687 15.0997C123.224 16.3074 124.639 17.6624 125.913 19.1455C127.326 20.7684 128.633 22.4817 129.824 24.2746H124.942ZM107.541 17.8104C107.593 16.8684 107.339 15.9348 106.817 15.1491C106.577 14.8315 106.264 14.5773 105.903 14.4088C105.543 14.2403 105.146 14.1627 104.749 14.1827C104.35 14.1628 103.951 14.2404 103.589 14.4088C103.226 14.5771 102.91 14.8313 102.668 15.1491C102.135 15.9305 101.876 16.8662 101.93 17.8104C101.877 18.7656 102.136 19.7124 102.668 20.5075C102.906 20.8292 103.219 21.0872 103.581 21.2589C103.942 21.4306 104.34 21.5107 104.74 21.492C105.14 21.5109 105.538 21.43 105.899 21.2566C106.26 21.0832 106.573 20.8227 106.808 20.4985C107.331 19.7027 107.587 18.7614 107.541 17.8104ZM111.541 17.8104C111.56 18.7574 111.408 19.7 111.092 20.5929C110.787 21.4079 110.306 22.146 109.685 22.7552C109.072 23.3583 108.342 23.8295 107.541 24.1397C105.735 24.7932 103.758 24.7932 101.953 24.1397C101.152 23.8289 100.425 23.3523 99.8207 22.741C99.2164 22.1298 98.7482 21.3978 98.4466 20.5929C98.1052 19.7055 97.9359 18.7611 97.9476 17.8104C97.931 16.8636 98.1006 15.9227 98.4466 15.0413C98.7675 14.2379 99.2529 13.5106 99.8716 12.906C100.49 12.3074 101.225 11.8409 102.029 11.5349C103.798 10.8818 105.741 10.8818 107.509 11.5349C108.312 11.8398 109.043 12.3065 109.658 12.906C110.265 13.5134 110.74 14.2406 111.051 15.0413C111.39 15.9245 111.556 16.8645 111.541 17.8104ZM83.7245 24.2746V5.84392L87.6579 5.25504V11.436C87.9915 11.3375 88.3307 11.2595 88.6738 11.2023C89.0686 11.1321 89.4686 11.096 89.8696 11.0944C90.8228 11.0653 91.7733 11.21 92.6746 11.5215C93.3664 11.7686 93.9848 12.186 94.4727 12.7352C94.93 13.2746 95.2548 13.9134 95.4212 14.6007C95.6126 15.3863 95.7047 16.1927 95.6955 17.0012V24.2746H91.7711V17.4462C91.7711 16.2685 91.6092 15.4339 91.2856 14.9424C90.9619 14.4524 90.3596 14.2051 89.4875 14.2051C89.156 14.2046 88.825 14.2332 88.4985 14.2906C88.1883 14.349 87.9141 14.4119 87.6669 14.4749V24.2746H83.7245ZM71.9244 9.10749C72.1372 9.77579 72.3709 10.525 72.6257 11.3551C72.8774 12.2002 73.1516 13.0678 73.4393 13.9669C73.727 14.8659 74.0192 15.765 74.3384 16.6641C74.6575 17.5631 74.9273 18.3992 75.206 19.1679C75.4352 18.3318 75.6555 17.4283 75.9072 16.4438C76.159 15.4593 76.3568 14.4524 76.5815 13.405C76.8063 12.3576 76.9996 11.3147 77.2019 10.2583C77.4042 9.20189 77.5975 8.21743 77.7728 7.25544H82.0433C81.4229 10.1024 80.7112 12.9884 79.908 15.9133C79.1049 18.8383 78.2418 21.6254 77.3187 24.2746H73.5607C72.9433 22.7012 72.344 21.053 71.7626 19.3298C71.1812 17.6066 70.6133 15.8774 70.0589 14.1422C69.4985 15.8774 68.9365 17.6066 68.3731 19.3298C67.8097 21.053 67.2193 22.7012 66.602 24.2746H62.8484C61.9134 21.6403 61.0443 18.8608 60.2412 15.9358C59.438 13.0109 58.7278 10.1249 58.1104 7.27791H62.5652C62.742 8.2399 62.9353 9.24085 63.1451 10.2808C63.3549 11.3207 63.5752 12.3696 63.8059 13.4275C64.0397 14.4749 64.2555 15.4863 64.5072 16.4663C64.7589 17.4462 64.9927 18.3543 65.2354 19.1904C65.5546 18.3902 65.8603 17.5361 66.1345 16.6371C66.4087 15.738 66.7279 14.839 67.0335 13.9399C67.3392 13.0409 67.573 12.1778 67.8112 11.3416C68.0495 10.5055 68.2608 9.7638 68.4541 9.09401L71.9244 9.10749Z" fill="white"/>
<path fill-rule="evenodd" clip-rule="evenodd" d="M21.9729 12.5599C21.4952 12.958 20.9132 13.2108 20.2961 13.2881C19.6239 13.3266 18.9607 13.1188 18.4306 12.7037C17.7608 12.2542 16.9786 11.5709 16.0436 10.9551C15.0138 10.2487 13.8541 9.75363 12.6317 9.49859C11.089 9.19368 9.49847 9.22742 7.97008 9.59749C6.3718 9.99562 4.90178 10.7956 3.69957 11.9215C2.5209 13.0647 1.62774 14.4691 1.0923 16.0212C0.549875 17.5649 0.395497 19.2183 0.642775 20.8357C0.917549 22.504 1.48035 24.1118 2.30603 25.5872C2.90824 26.676 3.71401 27.6389 4.67954 28.4237C5.51673 29.1438 6.45786 29.7333 7.47111 30.1724C8.41949 30.5598 9.41111 30.8315 10.4245 30.9815C10.9333 31.1028 11.4676 31.0571 11.9484 30.8512C12.1195 30.7661 12.27 30.6449 12.3896 30.4958C12.5091 30.3468 12.5948 30.1735 12.6407 29.9881C12.7286 29.5819 12.6629 29.1575 12.4564 28.7968C12.3397 28.6338 12.1895 28.4977 12.0158 28.3977C11.8421 28.2977 11.649 28.236 11.4494 28.2169C10.9684 28.118 10.3256 28.0866 9.58389 27.8843C8.72968 27.6391 7.9217 27.2548 7.1924 26.747C6.33974 26.1608 5.61739 25.4048 5.07063 24.5263C4.45058 23.4973 4.00835 22.3712 3.7625 21.1953C3.51584 20.0947 3.49444 18.9555 3.69957 17.8463C3.91407 16.8484 4.33854 15.9075 4.94476 15.0862C5.52441 14.2619 6.29577 13.5908 7.1924 13.1308C8.16951 12.6613 9.22969 12.3894 10.3121 12.3306C11.2286 12.2718 12.1473 12.405 13.0093 12.7217L13.2745 12.8296H13.3195C13.6296 12.951 17.4821 15.4234 18.6554 15.9358C19.8286 16.4483 17.0326 13.8455 18.026 13.877C18.9373 13.9331 19.8493 13.7793 20.6917 13.4275H20.7142H20.7412H20.7637H20.7906H20.8131H20.8356H20.8581H20.8805H20.903H20.9255H20.948L20.9839 13.396L21.9729 12.5599Z" fill="#A43E88"/>
<path d="M21.9729 12.5599C21.4952 12.958 20.9132 13.2108 20.2961 13.2881C19.6239 13.3266 18.9607 13.1188 18.4306 12.7037C17.7608 12.2542 16.9786 11.5709 16.0436 10.9551C15.0138 10.2487 13.8541 9.75363 12.6317 9.49859C11.089 9.19368 9.49847 9.22742 7.97008 9.59749C6.37274 9.99464 4.90394 10.7948 3.70406 11.9215C2.52257 13.0632 1.62766 14.468 1.0923 16.0212C0.549875 17.5649 0.395497 19.2183 0.642775 20.8357C0.917549 22.504 1.48035 24.1118 2.30603 25.5872C2.90824 26.676 3.71401 27.6389 4.67954 28.4237C5.51673 29.1438 6.45786 29.7333 7.47111 30.1724C8.41949 30.5598 9.41111 30.8315 10.4245 30.9815C10.9333 31.1028 11.4676 31.0571 11.9484 30.8512C12.1195 30.7661 12.27 30.6449 12.3896 30.4958C12.5091 30.3468 12.5948 30.1735 12.6407 29.9881C12.7286 29.5819 12.6629 29.1575 12.4564 28.7968C12.3397 28.6338 12.1895 28.4977 12.0158 28.3977C11.8421 28.2977 11.649 28.236 11.4494 28.2169C10.9684 28.118 10.3256 28.0866 9.58389 27.8843C8.72968 27.6391 7.9217 27.2548 7.1924 26.747C6.33974 26.1608 5.61739 25.4048 5.07063 24.5263C4.45058 23.4973 4.00835 22.3712 3.7625 21.1953C3.51584 20.0947 3.49444 18.9555 3.69957 17.8463C3.91407 16.8484 4.33854 15.9075 4.94476 15.0862C5.52441 14.2619 6.29577 13.5908 7.1924 13.1308C8.16951 12.6613 9.22969 12.3894 10.3121 12.3306C11.2286 12.2718 12.1473 12.405 13.0093 12.7217L13.2745 12.8296H13.3195C13.6296 12.9555 17.4821 15.4279 18.6554 15.9403C19.8286 16.4528 17.0326 13.85 18.026 13.8815C18.9373 13.9376 19.8493 13.7838 20.6917 13.432H20.7142H20.7412H20.7637H20.7906H20.8131H20.8356H20.8581H20.8805H20.903H20.9255H20.948L20.9839 13.4005L21.9729 12.5599Z" stroke="#A43E88" stroke-width="1.0519" stroke-linecap="round" stroke-linejoin="round"/>
<path fill-rule="evenodd" clip-rule="evenodd" d="M31.3097 4.42336C30.9305 4.3266 30.5886 4.11955 30.3272 3.82841C30.0657 3.53727 29.8965 3.17513 29.8409 2.78779C29.7853 2.40046 29.8459 2.00534 30.0149 1.65243C30.184 1.29952 30.4539 1.00468 30.7905 0.805212C31.1272 0.605743 31.5154 0.510609 31.9061 0.531847C32.2969 0.553085 32.6725 0.68974 32.9855 0.924523C33.2986 1.15931 33.535 1.48167 33.6647 1.85082C33.7945 2.21997 33.8119 2.61932 33.7147 2.99835C33.5834 3.50541 33.2567 3.9399 32.8061 4.20691C32.3555 4.47391 31.8175 4.55173 31.3097 4.42336Z" fill="#F43072"/>
<path d="M31.3097 4.42336C30.9305 4.3266 30.5886 4.11955 30.3272 3.82841C30.0657 3.53727 29.8965 3.17513 29.8409 2.78779C29.7853 2.40046 29.8459 2.00534 30.0149 1.65243C30.184 1.29952 30.4539 1.00468 30.7905 0.805212C31.1272 0.605743 31.5154 0.510609 31.9061 0.531847C32.2969 0.553085 32.6725 0.68974 32.9855 0.924523C33.2986 1.15931 33.535 1.48167 33.6647 1.85082C33.7945 2.21997 33.8119 2.61932 33.7147 2.99835C33.5834 3.50541 33.2567 3.9399 32.8061 4.20691C32.3555 4.47391 31.8175 4.55173 31.3097 4.42336V4.42336Z" stroke="#F43072" stroke-width="1.0519" stroke-linecap="round" stroke-linejoin="round"/>
<path fill-rule="evenodd" clip-rule="evenodd" d="M27.3672 20.4356C27.8435 20.035 28.4262 19.7819 29.044 19.7074C29.7116 19.6722 30.3695 19.8798 30.896 20.2918C31.5658 20.7323 32.366 21.4201 33.2651 22.0269C34.2948 22.7333 35.4545 23.2284 36.677 23.4834C38.2247 23.7931 39.8212 23.7639 41.3566 23.398C42.955 23.0011 44.4242 22.1991 45.6226 21.0694C46.8049 19.9303 47.7001 18.5267 48.2343 16.9742C48.779 15.4311 48.9334 13.7771 48.6839 12.1598C48.412 10.49 47.8506 8.88049 47.0251 7.40379C46.4202 6.31812 45.6148 5.35711 44.6516 4.57176C43.8144 3.85167 42.8733 3.26214 41.86 2.82309C40.9101 2.43564 39.917 2.16396 38.9021 2.01394C38.3948 1.89273 37.862 1.93845 37.3827 2.14431C37.2113 2.22885 37.0605 2.34994 36.9409 2.49906C36.8213 2.64818 36.7358 2.82169 36.6905 3.0074C36.5997 3.41206 36.6656 3.83608 36.8748 4.19415C36.9905 4.35841 37.1405 4.49567 37.3143 4.59654C37.4881 4.69741 37.6817 4.7595 37.8817 4.77854C38.3627 4.87744 39.0055 4.90441 39.7473 5.11119C40.5999 5.35685 41.4063 5.74108 42.1342 6.2485C42.9869 6.83469 43.7093 7.59071 44.256 8.46917C44.878 9.4967 45.319 10.6234 45.5597 11.8002C45.8107 12.9003 45.8321 14.0404 45.6226 15.1492C45.4087 16.1481 44.9825 17.0895 44.3729 17.9093C43.7939 18.7342 43.0224 19.4054 42.1253 19.8647C41.1574 20.3354 40.1067 20.6118 39.0325 20.6784C38.1156 20.7383 37.1964 20.6035 36.3353 20.2828L36.0656 20.1794H36.0252C35.7105 20.058 31.8625 17.5856 30.6893 17.0731C29.516 16.5607 32.3121 19.1634 31.3141 19.132C30.4042 19.0741 29.4933 19.228 28.6529 19.5815H28.6259H28.6035H28.5765H28.554H28.5315H28.509H28.4866H28.4641H28.4416H28.4191H28.3967L28.3607 19.6085L27.3672 20.4356Z" fill="#F26588"/>
<path d="M27.3672 20.4356C27.8435 20.035 28.4262 19.7819 29.044 19.7074C29.7116 19.6722 30.3695 19.8798 30.896 20.2918C31.5658 20.7323 32.366 21.4201 33.2651 22.0269C34.2948 22.7333 35.4545 23.2284 36.677 23.4834C38.2247 23.7931 39.8212 23.7639 41.3566 23.398C42.955 23.0011 44.4242 22.1991 45.6226 21.0694C46.8049 19.9303 47.7001 18.5267 48.2343 16.9742C48.779 15.4311 48.9334 13.7771 48.6839 12.1598C48.412 10.49 47.8506 8.88049 47.0251 7.40379C46.4202 6.31812 45.6148 5.35711 44.6516 4.57176C43.8144 3.85167 42.8733 3.26214 41.86 2.82309C40.9101 2.43564 39.917 2.16396 38.9021 2.01394C38.3948 1.89273 37.862 1.93845 37.3827 2.14431C37.2113 2.22885 37.0605 2.34994 36.9409 2.49906C36.8213 2.64818 36.7358 2.82169 36.6905 3.0074C36.5997 3.41206 36.6656 3.83608 36.8748 4.19415C36.9905 4.35841 37.1405 4.49567 37.3143 4.59654C37.4881 4.69741 37.6817 4.7595 37.8817 4.77854C38.3627 4.87744 39.0055 4.90441 39.7473 5.11119C40.5999 5.35685 41.4063 5.74108 42.1342 6.2485C42.9869 6.83469 43.7093 7.59071 44.256 8.46917C44.878 9.4967 45.319 10.6234 45.5596 11.8002C45.8107 12.9003 45.8321 14.0404 45.6226 15.1492C45.4087 16.1481 44.9825 17.0895 44.3729 17.9093C43.7939 18.7342 43.0224 19.4054 42.1253 19.8647C41.1574 20.3354 40.1067 20.6118 39.0325 20.6784C38.1156 20.7383 37.1964 20.6035 36.3353 20.2828L36.0656 20.1794H36.0252C35.7105 20.058 31.8625 17.5856 30.6893 17.0731C29.516 16.5607 32.3121 19.1634 31.3141 19.132C30.4042 19.0741 29.4933 19.228 28.6529 19.5815H28.6259H28.6035H28.5765H28.554H28.5315H28.509H28.4866H28.4641H28.4416H28.4191H28.3967L28.3607 19.6085L27.3672 20.4356Z" stroke="#F26588" stroke-width="1.0519" stroke-linecap="round" stroke-linejoin="round"/>
<path fill-rule="evenodd" clip-rule="evenodd" d="M18.0261 28.5675C18.4049 28.6653 18.7462 28.8732 19.0068 29.1649C19.2674 29.4567 19.4357 29.8192 19.4903 30.2066C19.5449 30.5939 19.4834 30.9888 19.3135 31.3412C19.1437 31.6937 18.8732 31.9878 18.5362 32.1865C18.1992 32.3852 17.8109 32.4795 17.4203 32.4574C17.0297 32.4354 16.6544 32.298 16.3419 32.0627C16.0294 31.8274 15.7937 31.5046 15.6646 31.1354C15.5355 30.7661 15.5188 30.3668 15.6166 29.988C15.681 29.7362 15.7946 29.4996 15.9507 29.2919C16.1067 29.0841 16.3024 28.9092 16.5262 28.7772C16.7501 28.6452 16.9979 28.5587 17.2552 28.5227C17.5126 28.4867 17.7746 28.502 18.0261 28.5675Z" fill="#AC8CED"/>
<path d="M18.0261 28.5675C18.4049 28.6653 18.7462 28.8732 19.0068 29.1649C19.2674 29.4567 19.4357 29.8192 19.4903 30.2066C19.5449 30.5939 19.4834 30.9888 19.3135 31.3412C19.1437 31.6937 18.8732 31.9878 18.5362 32.1865C18.1992 32.3852 17.8109 32.4795 17.4203 32.4574C17.0297 32.4354 16.6544 32.298 16.3419 32.0627C16.0294 31.8274 15.7937 31.5046 15.6646 31.1354C15.5355 30.7661 15.5188 30.3668 15.6166 29.988C15.681 29.7362 15.7946 29.4996 15.9507 29.2919C16.1067 29.0841 16.3024 28.9092 16.5262 28.7772C16.7501 28.6452 16.9979 28.5587 17.2552 28.5227C17.5126 28.4867 17.7746 28.502 18.0261 28.5675V28.5675Z" stroke="#AC8CED" stroke-width="1.0519" stroke-linecap="round" stroke-linejoin="round"/>
<path fill-rule="evenodd" clip-rule="evenodd" d="M27.3628 20.4356C27.8418 20.0366 28.4254 19.7838 29.044 19.7074C29.711 19.6778 30.3669 19.8847 30.8961 20.2917C31.5659 20.7413 32.3481 21.4245 33.2831 22.0449C34.3132 22.7468 35.4708 23.24 36.6905 23.4969C38.2347 23.8024 39.8268 23.7687 41.3566 23.398C42.9561 23.0029 44.4268 22.2025 45.6271 21.0739C46.8086 19.9323 47.7035 18.5275 48.2389 16.9742C48.7817 15.4306 48.9361 13.7772 48.6884 12.1598C48.4172 10.4912 47.8558 8.88309 47.0296 7.40826C46.4234 6.32228 45.6182 5.36003 44.6561 4.57174C43.8179 3.85202 42.8751 3.26391 41.8601 2.82757C40.9133 2.43547 39.9211 2.16363 38.9067 2.01842C38.4 1.89382 37.8665 1.93802 37.3873 2.14429C37.2166 2.23052 37.0662 2.35208 36.946 2.50088C36.8259 2.64969 36.7388 2.82234 36.6905 3.00738C36.6039 3.41415 36.6712 3.83857 36.8793 4.19863C36.9959 4.36205 37.1461 4.4987 37.3197 4.59948C37.4934 4.70025 37.6865 4.76282 37.8862 4.78302C38.5134 4.86189 39.136 4.97292 39.7518 5.11567C40.6035 5.35783 41.4088 5.74071 42.1343 6.24848C42.9918 6.84152 43.716 7.60707 44.2606 8.49612C44.8799 9.52336 45.3207 10.6481 45.5642 11.8226C45.8131 12.923 45.8345 14.0627 45.6271 15.1716C45.4142 16.1709 44.9879 17.1124 44.3774 17.9317C43.7977 18.7571 43.0264 19.4296 42.1298 19.8917C41.1573 20.3543 40.1035 20.6215 39.028 20.6783C38.1189 20.7368 37.2077 20.6036 36.3534 20.2872L36.0836 20.1839H36.0432C35.7285 20.0625 31.8806 17.5901 30.7028 17.0776C29.525 16.5652 32.3256 19.1679 31.3321 19.132C30.4208 19.074 29.5084 19.2279 28.6664 19.5815H28.6439H28.6215H28.5945H28.572H28.5495H28.5271H28.5046H28.4821H28.4596H28.4372H28.4147H28.3922H28.3697H28.3473L28.3113 19.613L27.3628 20.4356Z" fill="#A4448B"/>
<path d="M27.3628 20.4356C27.8418 20.0366 28.4254 19.7838 29.044 19.7074C29.711 19.6778 30.3669 19.8847 30.8961 20.2917C31.5659 20.7413 32.3481 21.4245 33.2831 22.0449C34.3132 22.7468 35.4708 23.24 36.6905 23.4969C38.2347 23.8024 39.8268 23.7687 41.3566 23.398C42.9564 23.0038 44.4274 22.2033 45.6271 21.0739C46.8086 19.9323 47.7035 18.5275 48.2389 16.9742C48.7817 15.4306 48.9361 13.7772 48.6884 12.1598C48.4172 10.4912 47.8558 8.88309 47.0296 7.40826C46.4234 6.32228 45.6182 5.36003 44.6561 4.57174C43.8179 3.85202 42.8751 3.26391 41.8601 2.82757C40.9133 2.43547 39.9211 2.16363 38.9067 2.01842C38.4 1.89382 37.8665 1.93802 37.3873 2.14429C37.2166 2.23052 37.0662 2.35208 36.946 2.50088C36.8259 2.64969 36.7388 2.82234 36.6905 3.00738C36.6039 3.41415 36.6712 3.83857 36.8793 4.19863C36.9959 4.36205 37.1461 4.4987 37.3197 4.59948C37.4934 4.70025 37.6865 4.76282 37.8862 4.78302C38.5134 4.86189 39.136 4.97292 39.7518 5.11567C40.6035 5.35783 41.4088 5.74071 42.1343 6.24848C42.9918 6.84152 43.716 7.60707 44.2606 8.49612C44.8799 9.52336 45.3207 10.6481 45.5642 11.8226C45.8131 12.923 45.8345 14.0627 45.6271 15.1716C45.4142 16.1709 44.9879 17.1124 44.3774 17.9317C43.7977 18.7571 43.0264 19.4296 42.1298 19.8917C41.1573 20.3543 40.1035 20.6215 39.028 20.6783C38.1189 20.7368 37.2077 20.6036 36.3534 20.2872L36.0836 20.1839H36.0432C35.7285 20.0625 31.8806 17.5901 30.7028 17.0776C29.525 16.5652 32.3256 19.1679 31.3321 19.132C30.4208 19.074 29.5084 19.2279 28.6664 19.5815H28.6439H28.6215H28.5945H28.572H28.5495H28.5271H28.5046H28.4821H28.4596H28.4372H28.4147H28.3922H28.3697H28.3473L28.3113 19.613L27.3628 20.4356Z" stroke="#A4448B" stroke-width="1.0519" stroke-linecap="round" stroke-linejoin="round"/>
<path fill-rule="evenodd" clip-rule="evenodd" d="M25.1106 23.4159C25.3938 23.0428 26.7244 21.1368 27.1335 20.7637C27.5425 20.3906 27.3582 20.5614 27.4706 20.476C27.8597 20.1152 28.2987 19.8124 28.7742 19.577C29.6168 19.2256 30.5287 19.0718 31.4399 19.1274C32.427 19.174 33.4065 19.3246 34.3619 19.577C34.9722 19.738 35.5726 19.9347 36.16 20.1659H36.2049C35.499 19.8591 34.8271 19.4794 34.2 19.033C33.458 18.4844 32.6883 17.9743 31.894 17.5046C31.1419 17.0915 30.3208 16.8188 29.471 16.7C28.6692 16.5758 27.8488 16.6658 27.093 16.9607C26.2416 17.3352 25.4649 17.8606 24.8004 18.5116C24.111 19.2671 23.4841 20.0775 22.9259 20.9345C22.6354 21.3192 22.3667 21.7199 22.1212 22.1348L19.7297 20.6424L20.4535 27.0931L26.9267 25.0028L24.8499 23.7621L25.1106 23.4159Z" fill="#AC8CED"/>
<path d="M25.1106 23.4159C25.3938 23.0428 26.7244 21.1368 27.1335 20.7637C27.5425 20.3906 27.3582 20.5614 27.4706 20.476C27.8597 20.1152 28.2987 19.8124 28.7742 19.577C29.6168 19.2256 30.5287 19.0718 31.4399 19.1274C32.427 19.174 33.4064 19.3246 34.3619 19.577C34.9722 19.738 35.5726 19.9347 36.16 20.1659H36.2049C35.499 19.8591 34.8271 19.4794 34.2 19.033C33.458 18.4844 32.6883 17.9743 31.894 17.5046C31.1419 17.0915 30.3208 16.8188 29.471 16.7C28.6692 16.5758 27.8488 16.6658 27.093 16.9607C26.2416 17.3352 25.4649 17.8606 24.8004 18.5116C24.111 19.2671 23.4841 20.0775 22.9259 20.9345C22.6354 21.3192 22.3667 21.7199 22.1212 22.1348L19.7297 20.6424L20.4535 27.0931L26.9267 25.0028L24.8499 23.7621L25.1106 23.4159Z" stroke="#AC8CED" stroke-width="1.05639" stroke-linecap="round" stroke-linejoin="round"/>
<path fill-rule="evenodd" clip-rule="evenodd" d="M21.9729 12.5868C21.4928 12.984 20.9098 13.2366 20.2916 13.315C19.6178 13.3427 18.9567 13.1256 18.4306 12.7037C17.7608 12.2542 16.9786 11.5754 16.0436 10.955C15.0135 10.2502 13.8538 9.75671 12.6317 9.50304C11.0893 9.19651 9.49876 9.22872 7.97007 9.59744C6.37075 9.99537 4.90033 10.7971 3.69956 11.926C2.5185 13.0672 1.62496 14.4722 1.09229 16.0257C0.549699 17.5678 0.395308 19.2197 0.642765 20.8356C0.914158 22.5062 1.47715 24.116 2.30602 25.5917C2.90938 26.6771 3.71328 27.6381 4.67503 28.4237C5.51453 29.1429 6.45701 29.7323 7.4711 30.1723C8.41787 30.5644 9.41008 30.8363 10.4245 30.9815C10.9316 31.1057 11.4654 31.0599 11.9439 30.8511C12.1141 30.7654 12.2642 30.6445 12.3843 30.4965C12.5044 30.3485 12.5918 30.1768 12.6407 29.9925C12.7303 29.5859 12.6629 29.1603 12.4519 28.8013C12.3368 28.6374 12.1876 28.5003 12.0146 28.3994C11.8416 28.2985 11.6488 28.2363 11.4494 28.2169C10.9684 28.118 10.3256 28.091 9.57938 27.8842C8.72703 27.64 7.92061 27.2573 7.19239 26.7514C6.33824 26.1637 5.61442 25.4062 5.06612 24.5263C4.44602 23.4978 4.0052 22.3714 3.76249 21.1953C3.51583 20.0946 3.49443 18.9554 3.69956 17.8463C3.90942 16.8482 4.33435 15.9078 4.94475 15.0907C5.52413 14.2649 6.29546 13.5923 7.19239 13.1307C8.16978 12.6627 9.22997 12.3923 10.3121 12.3351C11.2213 12.2762 12.1326 12.4094 12.9868 12.7262L13.2565 12.8295H13.3015C13.6117 12.9509 17.4641 15.4233 18.6374 15.9358C19.8106 16.4483 17.0146 13.8455 18.008 13.877C18.9194 13.9354 19.8319 13.7815 20.6737 13.4274H20.6962H20.7232H20.7457H20.7681H20.7906H20.8131H20.8356H20.858H20.8805H20.903H20.9255H20.9479H20.9704L21.0019 13.4005L21.9729 12.5868Z" fill="#F43072"/>
<path d="M21.9729 12.5868C21.4928 12.984 20.9098 13.2366 20.2916 13.315C19.6178 13.3427 18.9567 13.1256 18.4306 12.7037C17.7608 12.2542 16.9786 11.5754 16.0436 10.955C15.0135 10.2502 13.8538 9.75671 12.6317 9.50304C11.0893 9.19651 9.49877 9.22872 7.97007 9.59744C6.37075 9.99537 4.90033 10.7971 3.69956 11.926C2.5185 13.0672 1.62496 14.4722 1.09229 16.0257C0.549699 17.5678 0.395308 19.2197 0.642765 20.8356C0.914158 22.5062 1.47715 24.1161 2.30602 25.5917C2.90938 26.6771 3.71328 27.6381 4.67503 28.4237C5.51453 29.1429 6.45701 29.7323 7.4711 30.1723C8.41787 30.5644 9.41008 30.8363 10.4245 30.9815C10.9316 31.1057 11.4654 31.0599 11.9439 30.8511C12.1141 30.7654 12.2642 30.6445 12.3843 30.4965C12.5044 30.3485 12.5918 30.1768 12.6407 29.9925C12.7303 29.5859 12.6629 29.1603 12.4519 28.8013C12.3368 28.6374 12.1876 28.5003 12.0146 28.3994C11.8416 28.2985 11.6488 28.2363 11.4494 28.2169C10.9684 28.118 10.3256 28.091 9.57938 27.8842C8.72703 27.64 7.92061 27.2573 7.19239 26.7514C6.33824 26.1637 5.61442 25.4062 5.06612 24.5263C4.44602 23.4978 4.0052 22.3714 3.76249 21.1953C3.51583 20.0946 3.49443 18.9554 3.69956 17.8463C3.90942 16.8482 4.33435 15.9078 4.94475 15.0907C5.52413 14.2649 6.29546 13.5923 7.19239 13.1307C8.16978 12.6627 9.22997 12.3923 10.3121 12.3351C11.2213 12.2762 12.1326 12.4094 12.9868 12.7262L13.2565 12.8295H13.3015C13.6117 12.9509 17.4641 15.4233 18.6374 15.9358C19.8106 16.4483 17.0146 13.8455 18.008 13.877C18.9194 13.9354 19.8319 13.7815 20.6737 13.4274H20.6962H20.7232H20.7457H20.7681H20.7906H20.8131H20.8356H20.858H20.8805H20.903H20.9255H20.9479H20.9704H20.9929L21.0244 13.4005L21.9729 12.5868Z" stroke="#F43072" stroke-width="1.0519" stroke-linecap="round" stroke-linejoin="round"/>
<path fill-rule="evenodd" clip-rule="evenodd" d="M24.2251 9.58409C23.9464 9.9572 22.6158 11.8632 22.2022 12.2363C21.7886 12.6094 21.9774 12.4341 21.865 12.524C21.4768 12.8858 21.0376 13.1887 20.5614 13.4231C19.7195 13.777 18.8071 13.9308 17.8957 13.8726C16.9099 13.8286 15.9317 13.6779 14.9783 13.4231C14.3671 13.2629 13.7666 13.0647 13.1802 12.8297H13.1397C13.8442 13.1365 14.5146 13.5162 15.1401 13.9625C15.8825 14.5141 16.6538 15.0258 17.4507 15.4954C18.2012 15.9085 19.0207 16.1812 19.8691 16.3C20.6724 16.4242 21.4942 16.3342 22.2516 16.0393C23.1017 15.6647 23.8769 15.1393 24.5397 14.4884C25.2267 13.7511 25.8521 12.9588 26.4098 12.1194C26.7018 11.7359 26.9705 11.3351 27.2144 10.9192L29.6059 12.4071L28.8912 5.90695L22.409 7.99276L24.4903 9.23346L24.2251 9.58409Z" fill="#FF7B62"/>
<path d="M24.2251 9.58409C23.9464 9.9572 22.6158 11.8632 22.2022 12.2363C21.7886 12.6094 21.9774 12.4341 21.865 12.524C21.4768 12.8858 21.0376 13.1887 20.5614 13.4231C19.7195 13.777 18.8071 13.9308 17.8957 13.8726C16.9099 13.8286 15.9317 13.6779 14.9783 13.4231C14.3671 13.2629 13.7666 13.0647 13.1802 12.8297H13.1397C13.8442 13.1365 14.5146 13.5162 15.1401 13.9625C15.8825 14.5141 16.6538 15.0258 17.4507 15.4954C18.2012 15.9085 19.0207 16.1812 19.8691 16.3C20.6724 16.4242 21.4942 16.3342 22.2516 16.0393C23.1017 15.6647 23.8769 15.1393 24.5397 14.4884C25.2267 13.7511 25.8521 12.9588 26.4098 12.1194C26.7018 11.7359 26.9705 11.3351 27.2144 10.9192L29.6059 12.4071L28.8912 5.90695L22.409 7.99276L24.4903 9.23346L24.2251 9.58409Z" stroke="#FF7B62" stroke-width="1.05639" stroke-linecap="round" stroke-linejoin="round"/>
</g>
<defs>
<clipPath id="clip0">
<rect width="191" height="32.9864" fill="white"/>
</clipPath>
</defs>
</svg>
